<?xml version="1.0" encoding="utf-8"?>
<!-- Generator: Adobe Illustrator 19.0.0, SVG Export Plug-In . SVG Version: 6.00 Build 0)  -->
<svg version="1.1" id="Layer_1" xmlns="http://www.w3.org/2000/svg" xmlns:xlink="http://www.w3.org/1999/xlink" x="0px" y="0px"
	 viewBox="0 0 500 500" style="enable-background:new 0 0 500 500;" xml:space="preserve">
<style type="text/css">
	.st0{display:none;}
	.st1{display:inline;fill:#446BA8;}
	.st2{display:inline;}
	.st3{display:inline;fill:#010101;}
	.st4{fill:#446BA8;}
	.st5{fill:#010101;}
</style>
<g class="st0">
	<polygon class="st1" points="403,334 373,346 376,122 403,122 	"/>
	<polygon class="st1" points="329.3,298.7 351.3,274 373.3,295.3 354,320.7 	"/>
	<rect x="75" y="339" class="st1" width="22" height="88"/>
	<g class="st2">
		<path d="M412,329V118c0-3.3-2.7-6-6-6h-56.4c8.2-5.6,12.7-13.3,12.7-21.2c0-11.6-9.8-20.8-22.3-20.8c-22,0-35.2,18.4-42,32
			c-6.8-13.6-20-32-42-32c-12.5,0-22.3,9.1-22.3,20.8c0,8,4.6,15.6,12.7,21.2H190c-3.3,0-6,2.7-6,6v207.5L163.5,346H130v-6
			c0-3.3-2.7-6-6-6H76c-3.3,0-6,2.7-6,6v84c0,3.3,2.7,6,6,6h48c3.3,0,6-2.7,6-6h198c1,0,2-0.2,2.9-0.8l86.3-48.5
			c7.9-4.4,12.7-12.8,12.7-21.7C430,341.6,422.4,332,412,329L412,329z M118,418H82v-72h36V418z M340,82c5.9,0,10.3,3.8,10.3,8.8
			c0,4.6-3.6,9.3-10,13c-5.6,3.3-16,7.1-33.7,8C311.4,100.7,322.1,82,340,82L340,82z M245.7,90.8c0-5,4.4-8.8,10.3-8.8
			c17.8,0,28.5,18.7,33.3,29.8c-17.7-1-28-4.7-33.7-8C249.3,100.1,245.7,95.4,245.7,90.8L245.7,90.8z M196,124h204v204.4
			c-2.2,0.4-4.3,1-6.3,1.9l-73,33.7h-27.2c2.9-4.3,4.6-9.4,4.6-15c0-14.9-12.1-27-27-27h-75V124z M411.4,364.2l-85,47.8H130v-54h36
			c1.6,0,3.1-0.7,4.3-1.7l22.2-22.3H271c8.3,0,15,6.7,15,15s-6.7,15-15,15h-51v12h102c0.8,0,1.7-0.2,2.5-0.5l74.2-34.3
			c1.7-0.8,3.5-1.2,5.4-1.2h0.9c7.1,0,13,5.8,13,13C418,357.6,415.5,361.9,411.4,364.2L411.4,364.2z M411.4,364.2"/>
		<path d="M392.3,179.7l-36-36c-1.1-1.1-2.6-1.7-4.3-1.7H244c-1.6,0-3.1,0.7-4.3,1.7l-36,36c-2.2,2.3-2.3,5.9-0.2,8.2l89.7,101.6
			c1.1,1.4,2.9,2.4,4.8,2.4s3.7-1,4.8-2.4L392.5,188C394.6,185.6,394.5,182,392.3,179.7L392.3,179.7z M342.3,154l-14.9,29.8
			L308.8,154H342.3z M317.1,190h-38.3l19.1-30.7L317.1,190z M287.2,154l-18.6,29.8L253.7,154H287.2z M242.4,158.1l14.8,29.6l-37-7.4
			L242.4,158.1z M224.3,193.4l39.1,7.9l19.6,58.7L224.3,193.4z M298,267l-21.7-65h43.3L298,267z M313.1,259.9l19.6-58.7l39.1-7.9
			L313.1,259.9z M338.9,187.7l14.8-29.6l22.3,22.3L338.9,187.7z M338.9,187.7"/>
		<path d="M358,262h-12c0,16.6-13.4,30-30,30v12c16.6,0,30,13.4,30,30h12c0-16.6,13.4-30,30-30v-12C371.4,292,358,278.6,358,262
			L358,262z M352,312.4c-3.5-5.9-8.5-10.9-14.4-14.4c5.9-3.5,10.9-8.5,14.4-14.4c3.5,5.9,8.5,10.9,14.4,14.4
			C360.5,301.5,355.5,306.5,352,312.4L352,312.4z M352,312.4"/>
	</g>
	<path id="Path_7503_1_" class="st3" d="M137.2,227.1c0,3.4,2.7,6.1,6.1,6.1l0,0c3.4,0,6.1-2.7,6.1-6.1c0-3.4-2.7-6.1-6.1-6.1
		C139.9,221,137.2,223.7,137.2,227.1z M137.2,247.5c0,3.4,2.7,6.1,6.1,6.1l0,0c3.4,0,6.1-2.8,6.1-6.1c0-3.4-2.7-6.1-6.1-6.1
		C139.9,241.4,137.2,244.1,137.2,247.5z M137.2,267.9c0,3.4,2.7,6.1,6.1,6.1c3.4,0,6.1-2.7,6.1-6.1c0-3.4-2.7-6.1-6.1-6.1
		C139.9,261.8,137.2,264.5,137.2,267.9z M159.1,243.1c-2.4,2.4-2.4,6.3,0,8.7c2.4,2.4,6.3,2.4,8.7,0c1.1-1.2,1.8-2.7,1.8-4.3h0
		c0-1.6-0.6-3.2-1.8-4.4C165.4,240.7,161.5,240.7,159.1,243.1z M158.3,222c-2.4,2.4-2.4,6.3,0,8.7c2.4,2.4,6.3,2.4,8.7,0
		c1.1-1.2,1.8-2.7,1.8-4.4v-0.1c0-1.6-0.6-3.1-1.8-4.2C164.6,219.6,160.8,219.6,158.3,222z M159,200.7c-2.4,2.4-2.4,6.3,0,8.7
		c2.4,2.4,6.3,2.4,8.7,0c1.2-1.1,1.8-2.7,1.8-4.4v-0.1c0-1.6-0.6-3.1-1.8-4.2C165.3,198.2,161.4,198.2,159,200.7z"/>
</g>
<g>
	<path class="st4" d="M85.4,85.9c0,0-44.7-2.9-50.4,47.5s3.8,262.4,3.8,262.4s20,28.5,42.8,28.5l2.9-286.1L85.4,85.9z"/>
	<path class="st4" d="M369.7,317.9l-4.8,78.9c0,0-12.4,32.3-72.2,25.7l-1-44.7c0,0,28.5,6.7,30.4-8.6c1.9-15.2,1.9-50.4,1.9-50.4
		L369.7,317.9z"/>
	<path id="Path_7503_2_" class="st5" d="M299.6,60.1c4.8,0,8.7-3.9,8.7-8.7l0,0c0-4.8-3.9-8.7-8.7-8.7c-4.8,0-8.7,3.9-8.7,8.7
		C290.9,56.2,294.8,60.1,299.6,60.1z M328.7,60.1c4.8,0,8.7-3.9,8.7-8.7l0,0c0-4.8-3.9-8.7-8.7-8.7c-4.8,0-8.7,3.9-8.7,8.7
		C320,56.2,323.9,60.1,328.7,60.1z M357.8,60.1c4.8,0,8.7-3.9,8.7-8.7c0-4.8-3.9-8.7-8.7-8.7c-4.8,0-8.7,3.9-8.7,8.7
		C349.1,56.2,353,60.1,357.8,60.1z M322.4,28.9c3.4,3.5,9,3.5,12.4,0c3.5-3.4,3.5-9,0-12.4c-1.6-1.6-3.9-2.5-6.2-2.5v0
		c-2.3,0-4.5,0.9-6.2,2.5C319,19.9,319,25.4,322.4,28.9z M292.4,29.9c3.4,3.4,9,3.4,12.4,0c3.4-3.4,3.4-9,0-12.4
		c-1.7-1.6-3.9-2.5-6.2-2.5h-0.1c-2.2,0-4.4,0.9-6,2.5C289,21,289,26.5,292.4,29.9z M261.9,29c3.4,3.4,9,3.4,12.4,0
		c3.4-3.4,3.4-9,0-12.4c-1.6-1.7-3.8-2.6-6.2-2.5H268c-2.2,0-4.4,0.9-6,2.5C258.5,20,258.5,25.5,261.9,29z"/>
	<path id="Path_7503_3_" class="st5" d="M48.2,448.6c0,4.8,3.9,8.7,8.7,8.7c4.8,0,8.7-3.9,8.7-8.7l0,0c0-4.8-3.9-8.7-8.7-8.7
		C52.1,439.9,48.2,443.8,48.2,448.6z M77.3,448.6c0,4.8,3.9,8.7,8.7,8.7c4.8,0,8.7-3.9,8.7-8.7l0,0c0-4.8-3.9-8.7-8.7-8.7
		C81.2,439.9,77.3,443.8,77.3,448.6z M106.4,448.6c0,4.8,3.9,8.7,8.7,8.7c4.8,0,8.7-3.9,8.7-8.7c0-4.8-3.9-8.7-8.7-8.7
		C110.3,439.9,106.4,443.8,106.4,448.6z M79.8,483.5c1.7,1.6,3.9,2.5,6.2,2.5v0c2.3,0,4.5-0.9,6.2-2.5c3.5-3.4,3.5-9,0-12.4
		c-3.4-3.5-9-3.5-12.4,0C76.3,474.6,76.3,480.1,79.8,483.5z M49.7,482.5c1.6,1.6,3.8,2.5,6,2.5h0.1c2.3,0,4.5-0.9,6.2-2.5
		c3.4-3.5,3.4-9,0-12.4c-3.4-3.4-9-3.4-12.4,0C46.3,473.5,46.3,479,49.7,482.5z M19.3,483.4c1.6,1.6,3.8,2.5,6,2.5h0.1
		c2.4,0.1,4.6-0.8,6.2-2.5c3.4-3.4,3.4-9,0-12.4c-3.4-3.4-9-3.4-12.4,0C15.8,474.5,15.8,480,19.3,483.4z"/>
	<path class="st5" d="M477.3,97.1c-11.3-17.6-34.8-22.8-52.4-11.5c-17.7,11.3-34.1,22.9-49.4,34.4c-5.1-23-25.6-40.2-50.1-40.2
		H158.6c-4.1,0-7.4,3.3-7.4,7.4s3.3,7.4,7.4,7.4h166.9c19.9,0,36.2,16,36.5,35.9c-10.5,8.3-20.4,16.5-29.7,24.7v-4
		c0-14.8-12.1-26.9-26.9-26.9h-37.7c-4.1,0-7.4,3.3-7.4,7.4s3.3,7.4,7.4,7.4h37.7c6.7,0,12.1,5.4,12.1,12.1v17.3
		c-38.5,35.6-66,68.9-84.5,94.3l-67.2-65.5c-15-14.6-39-14.3-53.6,0.7c-14.6,15-14.3,39,0.7,53.6l37.6,36.6c1.4,1.3,3.3,2.1,5.2,2.1
		c2,0,3.9-0.8,5.3-2.2c2.8-2.9,2.8-7.6-0.1-10.4L123.2,241c-9.2-8.9-9.3-23.6-0.4-32.8c8.9-9.2,23.6-9.3,32.8-0.4
		c0,0,73.3,71.5,73.3,71.5c1.5,1.5,3.7,2.3,5.8,2.1c2.2-0.2,4.1-1.3,5.4-3.1c1.4-2,2.9-4,4.3-6c28.9-39.9,88.9-110.4,188.5-174.1
		c10.8-6.9,25.1-3.7,32,7c6.9,10.8,3.7,25.1-7,32c-36.7,23.5-67.6,47.9-93.3,71.2c-0.1,0-0.1,0.1-0.2,0.1
		c-17.3,15.7-32.3,30.9-45,45c-9.8,10.8-19.3,22.1-28.2,33.7c-19.9,25.8-29.5,43.1-30.8,45.5c0,0.1-0.1,0.1-0.1,0.1c0,0,0,0,0,0.1
		c0,0.1,0,0.1-0.1,0.1c-3.4,6.5-9.7,11-16.9,12.2c-7.2,1.1-14.6-1.2-19.8-6.3L182,298.3c-0.4-0.4-0.8-0.7-1.2-0.9
		c-2.9-1.9-6.8-1.5-9.3,1.1c-2.8,2.9-2.8,7.6,0.1,10.4l41.6,40.5c7.1,6.9,16.5,10.8,26.5,10.8c6.4,0,12.8-1.7,18.5-4.8
		c6.4-3.6,11.7-9,15.2-15.6c0.3-0.5,13.8-25.7,44.2-61.7v78.3c0,6.7-5.4,12.1-12.1,12.1H100.2c-6.7,0-12.1-5.4-12.1-12.1V151.2
		c0-6.7,5.4-12.1,12.1-12.1h138c4.1,0,7.4-3.3,7.4-7.4s-3.3-7.4-7.4-7.4h-138c-14.8,0-26.9,12.1-26.9,26.9v205.2
		c0,14.8,12.1,26.9,26.9,26.9h205.2c14.8,0,26.9-12.1,26.9-26.9v-95.1c8.8-9.7,18.7-19.9,29.7-30.4v145.5
		c0,20.1-16.4,36.5-36.5,36.5H80.1c-20.1,0-36.5-16.4-36.5-36.5V131.1c0-20.1,16.4-36.5,36.5-36.5h49c4.1,0,7.4-3.3,7.4-7.4
		s-3.3-7.4-7.4-7.4h-49c-28.3,0-51.3,23-51.3,51.3v245.3c0,28.3,23,51.3,51.3,51.3h245.3c28.3,0,51.3-23,51.3-51.3V217.2
		c24.7-22.2,54.2-45.4,89.1-67.7C483.5,138.3,488.6,114.8,477.3,97.1z"/>
</g>
</svg>
