<?xml version="1.0" encoding="iso-8859-1"?>
<!-- Generator: Adobe Illustrator 19.0.0, SVG Export Plug-In . SVG Version: 6.00 Build 0)  -->
<svg version="1.1" id="Capa_1" xmlns="http://www.w3.org/2000/svg" xmlns:xlink="http://www.w3.org/1999/xlink" x="0px" y="0px"
	 viewBox="0 0 491.52 491.52" style="enable-background:new 0 0 491.52 491.52;" xml:space="preserve">
<circle style="fill:#E05B49;" cx="245.76" cy="245.76" r="245.76"/>
<path style="opacity:0.1;enable-background:new    ;" d="M490.249,270.908L324.301,104.96l-84.122,49.254l-3.942,2.304l-2.151,1.28
	l-14.182,8.294l-98.099,57.446l-0.41,0.051l0.051,0.154l-5.99,3.482l9.881,16.896l4.864,25.242
	c-15.052,3.533-25.241,10.291-25.241,18.074v16.896c0,0.615,0.103,1.177,0.205,1.793c-0.103,0.614-0.205,1.229-0.205,1.842v16.896
	c0,0.615,0.103,1.177,0.205,1.793c-0.103,0.614-0.205,1.177-0.205,1.791v16.948c0,0.564,0.103,1.177,0.205,1.793
	c-0.103,0.614-0.205,1.177-0.205,1.791v16.896c0,1.894,0.614,3.737,1.741,5.479c1.126,1.741,2.764,3.379,4.864,4.864L226.05,490.663
	c6.509,0.517,13.068,0.857,19.71,0.857C373,491.52,477.654,394.824,490.249,270.908z"/>
<rect x="129.994" y="157.645" transform="matrix(0.863 -0.5053 0.5053 0.863 -76.3794 156.8748)" style="fill:#31978C;" width="242.032" height="123.196"/>
<path style="fill:#44C4A1;" d="M308.243,128.203l-164.63,96.395c3.581,6.115,1.382,14.059-4.908,17.742l37.213,63.555
	c6.291-3.683,14.294-1.713,17.875,4.402l164.63-96.395c-3.581-6.115-1.383-14.058,4.908-17.742l-37.213-63.555
	C319.826,136.289,311.824,134.318,308.243,128.203z"/>
<g>
	
		<ellipse transform="matrix(-0.863 0.5053 -0.5053 -0.863 578.427 281.5761)" style="fill:#31978C;" cx="251.029" cy="219.229" rx="33.192" ry="42.022"/>
	<ellipse style="fill:#31978C;" cx="332.15" cy="171.75" rx="7.511" ry="7.511"/>
</g>
<ellipse style="fill:#3EA69B;" cx="169.88" cy="266.75" rx="7.511" ry="7.511"/>
<path style="fill:#44C4A1;" d="M266.568,249.358l-3.011-5.143c-6.823,3.113-14.101,3.937-21.827,2.471l1.554-9.14
	c5.952,1.119,11.206,0.783,15.778-1.008l-8.003-13.668c-6.051,1.842-10.915,2.449-14.591,1.826
	c-3.676-0.623-6.703-2.966-9.081-7.028c-2.378-4.062-2.908-8.214-1.578-12.465c1.331-4.248,4.205-7.821,8.626-10.725l-2.063-3.523
	l4.506-2.639l2.103,3.592c5.387-2.646,11.303-3.746,17.75-3.294l-0.786,9.164c-4.394-0.391-8.545,0.211-12.467,1.81l7.755,13.244
	l0.212-0.124c6.144-1.892,11.116-2.501,14.914-1.826c3.805,0.674,6.909,3.069,9.314,7.176c2.407,4.111,2.911,8.312,1.509,12.597
	c-1.399,4.291-4.421,7.951-9.077,10.993l2.969,5.071L266.568,249.358z M234.971,206.795c-0.581,1.757-0.406,3.421,0.515,4.995
	c0.921,1.574,2.12,2.543,3.596,2.907c1.472,0.37,3.776,0.203,6.903-0.492l-7.137-12.189
	C236.842,203.443,235.55,205.036,234.971,206.795z M267.891,229.002c0.682-1.847,0.544-3.594-0.42-5.24
	c-0.962-1.643-2.241-2.645-3.837-3.004c-1.602-0.356-4.057-0.131-7.367,0.672l7.424,12.679
	C265.808,232.558,267.205,230.855,267.891,229.002z"/>
<rect x="227.509" y="157.638" transform="matrix(0.863 -0.5053 0.5053 0.863 -76.3764 156.8714)" style="fill:#F6C358;" width="46.993" height="123.196"/>
<g>
	
		<rect x="233.477" y="166.857" transform="matrix(0.863 -0.5053 0.5053 0.863 -83.1904 150.1861)" style="fill:#FFFFFF;" width="3.594" height="123.196"/>
	
		<rect x="264.935" y="148.43" transform="matrix(0.863 -0.5053 0.5053 0.863 -69.5688 163.5556)" style="fill:#FFFFFF;" width="3.594" height="123.196"/>
</g>
<rect x="130.84" y="199.675" transform="matrix(0.982 -0.1888 0.1888 0.982 -44.7988 52.2486)" style="fill:#3EA69B;" width="242.016" height="123.188"/>
<path style="fill:#44C4A1;" d="M148.737,319.182l-14.129-73.512c8.331-1.601,13.786-9.653,12.185-17.983l190.209-36.559
	c1.601,8.331,9.652,13.786,17.983,12.185l14.129,73.511c-8.331,1.601-13.786,9.653-12.185,17.983L166.72,331.366
	C165.119,323.037,157.068,317.581,148.737,319.182z"/>
<g>
	
		<ellipse transform="matrix(-0.982 0.1888 -0.1888 -0.982 548.4357 470.1829)" style="fill:#3EA69B;" cx="251.823" cy="261.213" rx="33.189" ry="42.019"/>
	<ellipse style="fill:#3EA69B;" cx="344.17" cy="243.5" rx="7.511" ry="7.511"/>
	<ellipse style="fill:#3EA69B;" cx="159.52" cy="278.99" rx="7.511" ry="7.511"/>
</g>
<path style="fill:#44C4A1;" d="M256.487,294.817l-1.125-5.852c-7.47,0.661-14.607-0.988-21.402-4.945l4.512-8.099
	c5.239,3.039,10.304,4.474,15.211,4.309l-2.99-15.554c-6.319-0.281-11.107-1.329-14.365-3.142c-3.258-1.813-5.331-5.03-6.219-9.653
	s-0.004-8.713,2.667-12.278c2.671-3.561,6.572-5.972,11.707-7.236l-0.771-4.009l5.128-0.986l0.786,4.088
	c5.961-0.699,11.905,0.235,17.833,2.81l-3.795,8.378c-4.013-1.833-8.127-2.649-12.358-2.449l2.897,15.071l0.241-0.046
	c6.424,0.264,11.314,1.347,14.67,3.249c3.363,1.904,5.491,5.196,6.389,9.871c0.899,4.678-0.026,8.807-2.776,12.38
	c-2.749,3.58-6.819,6.023-12.222,7.339l1.109,5.771L256.487,294.817z M240.884,244.156c-1.133,1.463-1.524,3.09-1.179,4.881
	c0.344,1.791,1.151,3.104,2.421,3.939c1.264,0.839,3.492,1.45,6.672,1.836l-2.666-13.871
	C243.765,241.62,242.016,242.69,240.884,244.156z M264.519,276.065c1.258-1.514,1.711-3.208,1.351-5.08
	c-0.359-1.869-1.232-3.241-2.617-4.111c-1.392-0.869-3.781-1.475-7.17-1.822l2.773,14.429
	C261.37,278.724,263.255,277.583,264.519,276.065z"/>
<path style="fill:#F6C358;" d="M203.243,365.899c0,11.411-22.001,20.661-49.141,20.661s-49.141-9.25-49.141-20.661v-16.902h98.283
	L203.243,365.899L203.243,365.899z"/>
<ellipse style="fill:#FCD462;" cx="154.11" cy="348.98" rx="49.14" ry="20.685"/>
<g>
	<path style="fill:#DC8744;" d="M154.101,332.371c-23.686,0-42.888,7.443-42.888,16.626c0,9.182,19.202,16.626,42.888,16.626
		s42.888-7.444,42.888-16.626S177.788,332.371,154.101,332.371z M154.101,363.775c-21.054,0-38.123-6.616-38.123-14.778
		s17.068-14.778,38.123-14.778s38.122,6.616,38.122,14.778C192.224,357.159,175.155,363.775,154.101,363.775z"/>
	<path style="fill:#DC8744;" d="M152.531,360.482v-2.023c-6.532-0.258-12.396-1.265-17.585-3.019l5.218-2.411
		c4.002,1.348,8.12,2.151,12.367,2.411v-5.376c-5.387-0.498-9.33-1.155-11.832-1.967c-2.501-0.813-3.752-2.018-3.752-3.616
		s1.437-2.904,4.322-3.921c2.885-1.016,6.637-1.569,11.262-1.662v-1.386h4.572v1.413c5.241,0.149,10.197,0.841,14.868,2.079
		l-4.648,2.549c-3.147-0.868-6.55-1.404-10.22-1.608v5.209h0.215c5.48,0.499,9.505,1.174,12.076,2.023
		c2.577,0.85,3.862,2.084,3.862,3.699c0,1.617-1.478,2.934-4.433,3.948c-2.955,1.017-6.858,1.571-11.721,1.663v1.995
		L152.531,360.482L152.531,360.482z M147.487,342.597c-1.216,0.415-1.821,0.932-1.821,1.551s0.477,1.108,1.431,1.468
		c0.948,0.361,2.763,0.707,5.433,1.04v-4.794C150.384,341.936,148.703,342.181,147.487,342.597z M162.536,354.746
		c1.332-0.424,2.001-0.96,2.001-1.607c0-0.646-0.524-1.159-1.571-1.538c-1.053-0.379-3.007-0.734-5.864-1.067v4.987
		C159.389,355.431,161.198,355.171,162.536,354.746z"/>
</g>
<path style="fill:#F6C358;" d="M203.243,345.372c0,11.411-22.001,20.661-49.141,20.661s-49.141-9.25-49.141-20.661V328.47h98.283
	L203.243,345.372L203.243,345.372z"/>
<ellipse style="fill:#FCD462;" cx="154.11" cy="328.45" rx="49.14" ry="20.685"/>
<g>
	<path style="fill:#DC8744;" d="M154.101,311.844c-23.686,0-42.888,7.443-42.888,16.626c0,9.182,19.202,16.626,42.888,16.626
		s42.888-7.444,42.888-16.626S177.788,311.844,154.101,311.844z M154.101,343.248c-21.054,0-38.123-6.616-38.123-14.778
		s17.068-14.778,38.123-14.778s38.122,6.616,38.122,14.778S175.155,343.248,154.101,343.248z"/>
	<path style="fill:#DC8744;" d="M152.531,339.955v-2.023c-6.532-0.258-12.396-1.265-17.585-3.019l5.218-2.411
		c4.002,1.348,8.12,2.151,12.367,2.411v-5.376c-5.387-0.498-9.33-1.155-11.832-1.967c-2.501-0.813-3.752-2.018-3.752-3.616
		s1.437-2.904,4.322-3.921c2.885-1.016,6.637-1.569,11.262-1.662v-1.386h4.572v1.413c5.241,0.149,10.197,0.841,14.868,2.079
		l-4.648,2.549c-3.147-0.868-6.55-1.404-10.22-1.608v5.209h0.215c5.48,0.499,9.505,1.174,12.076,2.023
		c2.577,0.85,3.862,2.084,3.862,3.699c0,1.617-1.478,2.934-4.433,3.948c-2.955,1.017-6.858,1.571-11.721,1.663v1.994
		L152.531,339.955L152.531,339.955z M147.487,322.07c-1.216,0.415-1.821,0.932-1.821,1.551s0.477,1.108,1.431,1.468
		c0.948,0.361,2.763,0.707,5.433,1.04v-4.794C150.384,321.409,148.703,321.654,147.487,322.07z M162.536,334.219
		c1.332-0.424,2.001-0.959,2.001-1.607c0-0.646-0.524-1.159-1.571-1.538c-1.053-0.379-3.007-0.734-5.864-1.067v4.987
		C159.389,334.904,161.198,334.644,162.536,334.219z"/>
</g>
<path style="fill:#F6C358;" d="M203.243,324.845c0,11.411-22.001,20.661-49.141,20.661s-49.141-9.25-49.141-20.661v-16.902h98.283
	L203.243,324.845L203.243,324.845z"/>
<ellipse style="fill:#FCD462;" cx="154.11" cy="307.97" rx="49.14" ry="20.685"/>
<g>
	<path style="fill:#DC8744;" d="M154.101,291.317c-23.686,0-42.888,7.443-42.888,16.626c0,9.182,19.202,16.626,42.888,16.626
		s42.888-7.444,42.888-16.626S177.788,291.317,154.101,291.317z M154.101,322.721c-21.054,0-38.123-6.616-38.123-14.778
		c0-8.162,17.068-14.778,38.123-14.778s38.122,6.616,38.122,14.778C192.224,316.105,175.155,322.721,154.101,322.721z"/>
	<path style="fill:#DC8744;" d="M152.531,319.428v-2.023c-6.532-0.258-12.396-1.265-17.585-3.019l5.218-2.411
		c4.002,1.348,8.12,2.151,12.367,2.411v-5.376c-5.387-0.498-9.33-1.155-11.832-1.967c-2.501-0.813-3.752-2.018-3.752-3.616
		s1.437-2.904,4.322-3.921c2.885-1.016,6.637-1.569,11.262-1.662v-1.386h4.572v1.413c5.241,0.149,10.197,0.841,14.868,2.079
		l-4.648,2.549c-3.147-0.868-6.55-1.404-10.22-1.608v5.209h0.215c5.48,0.499,9.505,1.174,12.076,2.023
		c2.577,0.85,3.862,2.084,3.862,3.699c0,1.617-1.478,2.934-4.433,3.948c-2.955,1.017-6.858,1.571-11.721,1.663v1.995
		L152.531,319.428L152.531,319.428z M147.487,301.543c-1.216,0.415-1.821,0.932-1.821,1.551s0.477,1.108,1.431,1.468
		c0.948,0.361,2.763,0.707,5.433,1.04v-4.794C150.384,300.882,148.703,301.127,147.487,301.543z M162.536,313.692
		c1.332-0.424,2.001-0.959,2.001-1.607c0-0.646-0.524-1.159-1.571-1.538c-1.053-0.379-3.007-0.734-5.864-1.067v4.987
		C159.389,314.377,161.198,314.117,162.536,313.692z"/>
</g>
<path style="fill:#F6C358;" d="M203.243,304.318c0,11.411-22.001,20.661-49.141,20.661s-49.141-9.25-49.141-20.661v-16.902h98.283
	L203.243,304.318L203.243,304.318z"/>
<ellipse style="fill:#FCD462;" cx="154.11" cy="287.44" rx="49.14" ry="20.685"/>
<g>
	<path style="fill:#DC8744;" d="M154.101,270.79c-23.686,0-42.888,7.443-42.888,16.626c0,9.182,19.202,16.626,42.888,16.626
		s42.888-7.444,42.888-16.626S177.788,270.79,154.101,270.79z M154.101,302.194c-21.054,0-38.123-6.616-38.123-14.778
		s17.068-14.778,38.123-14.778s38.122,6.616,38.122,14.778C192.224,295.578,175.155,302.194,154.101,302.194z"/>
	<path style="fill:#DC8744;" d="M152.531,298.901v-2.023c-6.532-0.258-12.396-1.265-17.585-3.019l5.218-2.411
		c4.002,1.348,8.12,2.151,12.367,2.411v-5.376c-5.387-0.498-9.33-1.155-11.832-1.967c-2.501-0.813-3.752-2.018-3.752-3.616
		s1.437-2.904,4.322-3.921c2.885-1.016,6.637-1.569,11.262-1.662v-1.386h4.572v1.413c5.241,0.149,10.197,0.841,14.868,2.079
		l-4.648,2.549c-3.147-0.868-6.55-1.404-10.22-1.608v5.209h0.215c5.48,0.499,9.505,1.174,12.076,2.023
		c2.577,0.85,3.862,2.084,3.862,3.699c0,1.617-1.478,2.934-4.433,3.948c-2.955,1.017-6.858,1.571-11.721,1.663v1.994
		L152.531,298.901L152.531,298.901z M147.487,281.016c-1.216,0.415-1.821,0.932-1.821,1.551s0.477,1.108,1.431,1.468
		c0.948,0.361,2.763,0.707,5.433,1.04v-4.794C150.384,280.355,148.703,280.6,147.487,281.016z M162.536,293.165
		c1.332-0.424,2.001-0.959,2.001-1.607c0-0.646-0.524-1.159-1.571-1.538c-1.053-0.379-3.007-0.734-5.864-1.067v4.987
		C159.389,293.85,161.198,293.59,162.536,293.165z"/>
</g>
<path style="fill:#F6C358;" d="M306.874,365.899c0,11.411-22.001,20.661-49.141,20.661s-49.141-9.25-49.141-20.661v-16.902h98.283
	v16.902H306.874z"/>
<ellipse style="fill:#FCD462;" cx="257.74" cy="348.98" rx="49.14" ry="20.685"/>
<g>
	<path style="fill:#DC8744;" d="M257.732,332.371c-23.686,0-42.888,7.443-42.888,16.626c0,9.182,19.202,16.626,42.888,16.626
		s42.888-7.444,42.888-16.626S281.419,332.371,257.732,332.371z M257.732,363.775c-21.054,0-38.123-6.616-38.123-14.778
		s17.068-14.778,38.123-14.778s38.122,6.616,38.122,14.778C295.855,357.159,278.786,363.775,257.732,363.775z"/>
	<path style="fill:#DC8744;" d="M256.162,360.482v-2.023c-6.532-0.258-12.396-1.265-17.585-3.019l5.218-2.411
		c4.002,1.348,8.12,2.151,12.367,2.411v-5.376c-5.387-0.498-9.33-1.155-11.832-1.967c-2.501-0.813-3.752-2.018-3.752-3.616
		s1.437-2.904,4.322-3.921c2.885-1.016,6.637-1.569,11.262-1.662v-1.386h4.572v1.413c5.241,0.149,10.197,0.841,14.868,2.079
		l-4.648,2.549c-3.147-0.868-6.55-1.404-10.22-1.608v5.209h0.215c5.48,0.499,9.505,1.174,12.076,2.023
		c2.577,0.85,3.862,2.084,3.862,3.699c0,1.617-1.478,2.934-4.433,3.948c-2.955,1.017-6.858,1.571-11.721,1.663v1.995
		L256.162,360.482L256.162,360.482z M251.118,342.597c-1.216,0.415-1.821,0.932-1.821,1.551s0.477,1.108,1.431,1.468
		c0.948,0.361,2.763,0.707,5.433,1.04v-4.794C254.015,341.936,252.334,342.181,251.118,342.597z M266.167,354.746
		c1.332-0.424,2.001-0.96,2.001-1.607c0-0.646-0.524-1.159-1.571-1.538c-1.053-0.379-3.007-0.734-5.863-1.067v4.987
		C263.02,355.431,264.829,355.171,266.167,354.746z"/>
</g>
<path style="fill:#F6C358;" d="M306.874,345.372c0,11.411-22.001,20.661-49.141,20.661s-49.141-9.25-49.141-20.661V328.47h98.283
	v16.902H306.874z"/>
<ellipse style="fill:#FCD462;" cx="257.74" cy="328.45" rx="49.14" ry="20.685"/>
<g>
	<path style="fill:#DC8744;" d="M257.732,311.844c-23.686,0-42.888,7.443-42.888,16.626c0,9.182,19.202,16.626,42.888,16.626
		s42.888-7.444,42.888-16.626S281.419,311.844,257.732,311.844z M257.732,343.248c-21.054,0-38.123-6.616-38.123-14.778
		s17.068-14.778,38.123-14.778s38.122,6.616,38.122,14.778S278.786,343.248,257.732,343.248z"/>
	<path style="fill:#DC8744;" d="M256.162,339.955v-2.023c-6.532-0.258-12.396-1.265-17.585-3.019l5.218-2.411
		c4.002,1.348,8.12,2.151,12.367,2.411v-5.376c-5.387-0.498-9.33-1.155-11.832-1.967c-2.501-0.813-3.752-2.018-3.752-3.616
		s1.437-2.904,4.322-3.921c2.885-1.016,6.637-1.569,11.262-1.662v-1.386h4.572v1.413c5.241,0.149,10.197,0.841,14.868,2.079
		l-4.648,2.549c-3.147-0.868-6.55-1.404-10.22-1.608v5.209h0.215c5.48,0.499,9.505,1.174,12.076,2.023
		c2.577,0.85,3.862,2.084,3.862,3.699c0,1.617-1.478,2.934-4.433,3.948c-2.955,1.017-6.858,1.571-11.721,1.663v1.994
		L256.162,339.955L256.162,339.955z M251.118,322.07c-1.216,0.415-1.821,0.932-1.821,1.551s0.477,1.108,1.431,1.468
		c0.948,0.361,2.763,0.707,5.433,1.04v-4.794C254.015,321.409,252.334,321.654,251.118,322.07z M266.167,334.219
		c1.332-0.424,2.001-0.959,2.001-1.607c0-0.646-0.524-1.159-1.571-1.538c-1.053-0.379-3.007-0.734-5.863-1.067v4.987
		C263.02,334.904,264.829,334.644,266.167,334.219z"/>
</g>
<g>
</g>
<g>
</g>
<g>
</g>
<g>
</g>
<g>
</g>
<g>
</g>
<g>
</g>
<g>
</g>
<g>
</g>
<g>
</g>
<g>
</g>
<g>
</g>
<g>
</g>
<g>
</g>
<g>
</g>
</svg>
