<?xml version="1.0" encoding="utf-8"?>
<!-- Generator: Adobe Illustrator 19.0.0, SVG Export Plug-In . SVG Version: 6.00 Build 0)  -->
<svg version="1.1" id="Layer_1" xmlns="http://www.w3.org/2000/svg" xmlns:xlink="http://www.w3.org/1999/xlink" x="0px" y="0px"
	 viewBox="0 0 500 500" style="enable-background:new 0 0 500 500;" xml:space="preserve">
<style type="text/css">
	.st0{display:none;}
	.st1{display:inline;fill:#446BA8;}
	.st2{display:inline;fill:#010101;}
	.st3{display:inline;}
	.st4{fill:#446BA8;}
	.st5{fill:#010101;}
	.st6{display:none;fill:#010101;}
	.st7{display:none;fill:#446BA8;}
	.st8{display:none;fill:none;stroke:#010101;stroke-width:15;stroke-miterlimit:10;}
	.st9{display:none;fill:#446BA9;stroke:#010101;stroke-width:15;stroke-miterlimit:10;}
	.st10{display:none;fill:#FFFFFF;}
	.st11{clip-path:url(#XMLID_154_);}
	.st12{fill:none;stroke:#000000;stroke-width:19;stroke-miterlimit:10;}
</style>
<g id="XMLID_48_" class="st0">
	<rect id="XMLID_52_" x="-1014.9" y="428.8" class="st1" width="52.7" height="67"/>
	<polygon id="XMLID_53_" class="st1" points="-918.2,341.8 -754.2,350.7 -754.2,27.9 -785.9,27.9 -785.7,261.8 -849.2,325.8 
		-908.9,282.8 	"/>
	<path id="XMLID_3_" class="st2" d="M-956.9,171.9l-42.9,42.9c-13.6,13.5-21.1,31.8-21.1,50.9v100.6c0,6.2,1.5,12.3,4.2,17.9l9,17.9
		c1.8,3.6,2.7,7.6,2.5,11.6l-0.3,8.1h-15.4v80h176v-80h-24v-13.6l3.2-4.8c9-13.5,14.1-29.3,14.7-45.6h102.1v-336h-208V171.9z
		 M-860.9,437.8v48h-144v-48H-860.9z M-879,394.5l-5.9,8.9v18.4h-104.6l0.3-7.5c0.2-6.7-1.2-13.3-4.2-19.3l-9-17.9
		c-1.7-3.3-2.5-7-2.5-10.7V265.7c0-14.9,5.9-29.1,16.4-39.6l31.6-31.6v66l-19.4,19.4l11.3,11.3l56.5-56.5c6.3-6.3,16.4-6.3,22.7,0
		c6.3,6.3,6.3,16.4,0,22.7l-47.2,47.2l4.8,5.6c13.1,15.5,13.5,38.1,0.8,53.9l-3.8,4.6l12.4,10.1l3.8-4.7c3.9-4.9,7-10.4,9.2-16.3
		h38.7C-867.7,370.9-871.8,383.6-879,394.5L-879,394.5z M-886.5,280.7l12.1-12.1c12.3-12.5,12.4-32.6,0-45.2
		c18.2,11.7,42.4,7.1,54.9-10.5c12.6-17.6,9-42-8-55.4c-17-13.3-41.6-10.9-55.7,5.5c-14.1,16.4-12.8,41,2.9,55.9
		c-8.6-5.5-19.3-6.4-28.7-2.6V109.2c20.1-3.4,35.9-19.2,39.3-39.3h33.3c3.4,20.1,19.2,35.9,39.3,39.3v161.3
		c-20.1,3.4-35.9,19.2-39.3,39.3h-33.3C-871.5,298.4-877.5,288-886.5,280.7L-886.5,280.7z M-852.9,213.8c-13.3,0-24-10.7-24-24
		c0-13.3,10.7-24,24-24s24,10.7,24,24C-828.9,203.1-839.7,213.8-852.9,213.8L-852.9,213.8z M-764.9,37.8v304h-137.4
		c1-12.7-2.3-25.3-9.2-36l13.6-13.6c8.2,6,13,15.5,13,25.6v8h64v-8c0-17.7,14.3-32,32-32h8v-192h-8c-17.7,0-32-14.3-32-32v-8h-64v8
		c0,17.7-14.3,32-32,32h-8v134.7l-16,16V37.8H-764.9z M-764.9,37.8"/>
	<g id="XMLID_2_" class="st3">
		<path id="Path_7501" class="st4" d="M-908.9,467.6v-10.6h10.6v10.6H-908.9z"/>
		<rect id="XMLID_57_" x="-890.1" y="456.5" class="st4" width="11" height="11.6"/>
	</g>
	<path id="Path_7503" class="st2" d="M-798.1,396.4c-3.4,0-6.1,2.7-6.1,6.1l0,0c0,3.4,2.7,6.1,6.1,6.1c3.4,0,6.1-2.7,6.1-6.1
		C-792,399.2-794.7,396.4-798.1,396.4z M-818.5,396.4c-3.4,0-6.1,2.7-6.1,6.1l0,0c0,3.4,2.8,6.1,6.1,6.1c3.4,0,6.1-2.7,6.1-6.1
		C-812.4,399.2-815.1,396.4-818.5,396.4z M-838.9,396.4c-3.4,0-6.1,2.7-6.1,6.1c0,3.4,2.7,6.1,6.1,6.1c3.4,0,6.1-2.7,6.1-6.1
		C-832.8,399.2-835.5,396.4-838.9,396.4z M-814.1,418.3c-2.4-2.4-6.3-2.4-8.7,0c-2.4,2.4-2.4,6.3,0,8.7c1.2,1.1,2.7,1.8,4.3,1.8v0
		c1.6,0,3.2-0.6,4.4-1.8C-811.7,424.6-811.7,420.7-814.1,418.3z M-793,417.6c-2.4-2.4-6.3-2.4-8.7,0c-2.4,2.4-2.4,6.3,0,8.7
		c1.2,1.1,2.7,1.8,4.4,1.8h0.1c1.6,0,3.1-0.6,4.2-1.8C-790.6,423.9-790.6,420-793,417.6z M-771.6,418.3c-2.4-2.4-6.3-2.4-8.7,0
		c-2.4,2.4-2.4,6.3,0,8.7c1.1,1.2,2.7,1.8,4.4,1.8h0.1c1.6,0,3.1-0.6,4.2-1.8C-769.2,424.6-769.2,420.7-771.6,418.3z"/>
	<path id="Path_7503_1_" class="st2" d="M-1013,118.9c0,3.4,2.7,6.1,6.1,6.1l0,0c3.4,0,6.1-2.7,6.1-6.1c0-3.4-2.7-6.1-6.1-6.1
		C-1010.3,112.8-1013,115.5-1013,118.9z M-1013,139.3c0,3.4,2.7,6.1,6.1,6.1l0,0c3.4,0,6.1-2.8,6.1-6.1c0-3.4-2.7-6.1-6.1-6.1
		C-1010.3,133.2-1013,135.9-1013,139.3z M-1013,159.7c0,3.4,2.7,6.1,6.1,6.1c3.4,0,6.1-2.7,6.1-6.1c0-3.4-2.7-6.1-6.1-6.1
		C-1010.3,153.6-1013,156.3-1013,159.7z M-991.1,134.9c-2.4,2.4-2.4,6.3,0,8.7c2.4,2.4,6.3,2.4,8.7,0c1.1-1.2,1.8-2.7,1.8-4.3h0
		c0-1.6-0.6-3.2-1.8-4.4C-984.8,132.5-988.7,132.5-991.1,134.9z M-991.9,113.8c-2.4,2.4-2.4,6.3,0,8.7c2.4,2.4,6.3,2.4,8.7,0
		c1.1-1.2,1.8-2.7,1.8-4.4V118c0-1.6-0.6-3.1-1.8-4.2C-985.6,111.4-989.5,111.4-991.9,113.8z M-991.2,92.5c-2.4,2.4-2.4,6.3,0,8.7
		c2.4,2.4,6.3,2.4,8.7,0c1.2-1.1,1.8-2.7,1.8-4.4v-0.1c0-1.6-0.6-3.1-1.8-4.2C-984.9,90-988.8,90-991.2,92.5z"/>
</g>
<g id="XMLID_26_" class="st0">
	<rect id="XMLID_55_" x="-515.4" y="278.5" class="st1" width="58.2" height="194"/>
	<rect id="XMLID_62_" x="-351.6" y="11.2" class="st1" width="29.9" height="281.5"/>
	
		<rect id="XMLID_61_" x="-410.5" y="64.2" transform="matrix(0.9659 -0.259 0.259 0.9659 -60.4785 -96.9254)" class="st1" width="24.8" height="233.8"/>
	<path id="XMLID_63_" class="st1" d="M-118.2,474.9h-58.2h0c18.8-17.1,30.7-40.4,33.6-65.6l24.6-215.9V474.9z"/>
	<g id="XMLID_11_" class="st3">
		<path id="XMLID_18_" class="st5" d="M-515.4,426.2c-2.5,0-4.9,1-6.6,2.7c-1.7,1.7-2.7,4.1-2.7,6.6s1,4.9,2.7,6.6
			c1.7,1.7,4.1,2.7,6.6,2.7s4.9-1,6.6-2.7c1.7-1.7,2.7-4.1,2.7-6.6s-1-4.9-2.7-6.6C-510.5,427.2-513,426.2-515.4,426.2z"/>
		<path id="XMLID_17_" class="st4" d="M-156.6,172.3c-2.5,0-4.9,1-6.6,2.7c-1.7,1.7-2.7,4.1-2.7,6.6s1,4.9,2.7,6.6
			c1.7,1.7,4.1,2.7,6.6,2.7c2.5,0,4.9-1,6.6-2.7c1.7-1.7,2.7-4.1,2.7-6.6s-1-4.9-2.7-6.6C-151.7,173.3-154.1,172.3-156.6,172.3z"/>
		<path id="XMLID_12_" class="st5" d="M-113.1,7c-1.8-1.7-4.1-2.7-6.6-2.7l-229.6,0c-5.2,0-9.3,4.2-9.3,9.3v26.7L-447.1,64
			c-5,1.3-7.9,6.5-6.6,11.4l45.9,171.1l-39.7,39.7c-5-7.4-13.5-12.2-23.1-12.2h-89.6c-15.4,0-28,12.6-28,28v152.1
			c0,15.4,12.6,28,28,28h89.6c13.1,0,24.1-9.1,27.2-21.3l11.1,9.7c8.6,7.5,19.5,11.6,30.9,11.6h281.7c5.2,0,9.3-4.2,9.3-9.3V13.6
			C-110.4,11.2-111.3,8.8-113.1,7z M-358.6,215.8l-17-63c7.1-3.7,12.9-9.2,17-15.7V215.8z M-358.6,59.7v34.6l-6.3,1.7
			c-2.4,0.6-4.4,2.2-5.7,4.3c-1.2,2.1-1.6,4.7-0.9,7.1c3.6,13.4-4.4,27.2-17.8,30.8c-2.4,0.6-4.4,2.2-5.7,4.4
			c-1.2,2.1-1.6,4.7-0.9,7.1l36.4,134.7h-18.7l-9.7-37.8c-0.3-1.2-0.8-2.3-1.6-3.3l-43.8-163.6L-358.6,59.7z M-470.6,463.5h-89.6
			c-5.1,0-9.3-4.2-9.3-9.3V302c0-5.1,4.2-9.3,9.3-9.3h35.5v107.5c0,5.2,4.2,9.3,9.3,9.3s9.3-4.2,9.3-9.3V292.7h35.5
			c5.1,0,9.3,4.2,9.3,9.3v152.1C-461.3,459.3-465.5,463.5-470.6,463.5z M-401.4,463.5c-6.9,0-13.5-2.5-18.6-7l-22.5-19.7V307.8
			l40.7-40.7l7.4,28.9c1.1,4.1,4.8,7,9,7l183.5,0c7.2,0,13.1,5.9,13.1,13.1c0,7.2-5.9,13.1-13.1,13.1h-94c-5.2,0-9.3,4.2-9.3,9.3
			c0,5.2,4.2,9.3,9.3,9.3h123.2c7.2,0,13.1,5.9,13.1,13.1c0,7.2-5.9,13.1-13.1,13.1H-296c-5.2,0-9.3,4.2-9.3,9.3s4.2,9.3,9.3,9.3
			h103.3c7.2,0,13.1,5.9,13.1,13.1c0,7.2-5.9,13.1-13.1,13.1H-296c-5.2,0-9.3,4.2-9.3,9.3s4.2,9.3,9.3,9.3h71.4
			c7.2,0,13.1,5.9,13.1,13.1c0,7.2-5.9,13.1-13.1,13.1L-401.4,463.5L-401.4,463.5z M-129,463.5h-66.6c1.8-4,2.8-8.4,2.8-13.1
			s-1-9.1-2.8-13.1h2.9c17.5,0,31.7-14.2,31.7-31.7c0-5.1-1.2-9.9-3.4-14.2c13.4-3.7,23.3-16,23.3-30.6c0-7.1-2.3-13.6-6.3-18.9
			V223.6c0-5.2-4.2-9.3-9.3-9.3c-5.2,0-9.3,4.2-9.3,9.3v106.2c-2.2-0.5-4.5-0.7-6.8-0.7h-0.3c1.8-4,2.8-8.4,2.8-13.1
			c0-17.5-14.2-31.7-31.7-31.7h-15c15.9-6.8,27.1-22.7,27.1-41.1c0-24.6-20-44.7-44.7-44.7s-44.7,20-44.7,44.7
			c0,18.4,11.2,34.2,27.1,41.1h-51V106.8c16.7-3.6,29.8-16.8,33.5-33.5h70.2c3.6,16.7,16.8,29.8,33.5,33.5v29c0,5.2,4.2,9.3,9.3,9.3
			c5.2,0,9.3-4.2,9.3-9.3V98.5c0-5.2-4.2-9.3-9.3-9.3c-13.9,0-25.1-11.3-25.1-25.1c0-5.2-4.2-9.3-9.3-9.3h-86.9
			c-5.2,0-9.3,4.2-9.3,9.3c0,13.9-11.3,25.1-25.1,25.1c-5.2,0-9.3,4.2-9.3,9.3v185.8h-18.2V23l210.9,0L-129,463.5L-129,463.5z
			 M-234.5,269.2c-14.3,0-26-11.7-26-26c0-14.3,11.7-26,26-26c14.3,0,26,11.7,26,26C-208.5,257.6-220.1,269.2-234.5,269.2z"/>
	</g>
	<path id="Path_7503_2_" class="st2" d="M-469.3,185.2c0.9,3.2,4.3,5.1,7.6,4.2l0,0c3.3-0.9,5.2-4.3,4.2-7.6
		c-0.9-3.3-4.3-5.2-7.5-4.2C-468.3,178.6-470.2,182-469.3,185.2z M-463.8,204.9c0.9,3.2,4.3,5.1,7.6,4.2l0,0
		c3.3-0.9,5.2-4.3,4.2-7.6c-0.9-3.3-4.3-5.2-7.5-4.2C-462.8,198.2-464.7,201.6-463.8,204.9z M-458.2,224.5c0.9,3.3,4.3,5.2,7.6,4.2
		c3.3-0.9,5.1-4.3,4.2-7.6c-0.9-3.2-4.3-5.1-7.5-4.2C-457.2,217.9-459.1,221.2-458.2,224.5z M-443.8,194.7c-1.7,3-0.6,6.7,2.4,8.4
		c3,1.7,6.7,0.6,8.4-2.4c0.8-1.4,0.9-3.1,0.5-4.7l0,0c-0.4-1.6-1.5-2.9-2.9-3.7C-438.4,190.6-442.2,191.7-443.8,194.7z
		 M-450.3,174.6c-1.7,3-0.6,6.7,2.4,8.4c3,1.7,6.7,0.6,8.4-2.4c0.7-1.4,0.9-3.1,0.5-4.7l0-0.1c-0.4-1.5-1.5-2.8-2.8-3.6
		C-444.9,170.6-448.6,171.6-450.3,174.6z M-455.4,153.8c-1.7,3-0.6,6.7,2.4,8.4c3,1.7,6.7,0.6,8.4-2.4c0.8-1.4,1-3.1,0.5-4.7l0-0.1
		c-0.4-1.5-1.5-2.8-2.9-3.6C-450,149.8-453.7,150.9-455.4,153.8z"/>
</g>
<path id="XMLID_84_" class="st6" d="M426.1,415.1c-2.7,0.8-5.6,0.2-7.8-1.5c-2.2-1.7-3.5-4.3-3.5-7.1l0.1-23.5h-21.6v106.9h89.1
	v-90.9L426.1,415.1z"/>
<path id="XMLID_86_" class="st7" d="M441.5,466.8c-5.1,5.1-12.8,6.6-19.4,3.9c-6.7-2.8-11-9.3-11-16.5c0-9.8,8-17.8,17.8-17.8
	c7.2,0,13.7,4.3,16.5,11C448.2,454,446.6,461.7,441.5,466.8z"/>
<path id="XMLID_73_" class="st8" d="M375.5,379.3v110.5H195.9c-15.2,0-30.2-3.5-43.8-10.3L48.3,427.5c-6.9-3.4-11.2-10.4-11.2-18.1
	v-1.9c0-6.8,3.5-13.2,9.1-16.9c0.5-0.3,1-0.7,1.6-0.9c5.6-2.9,12.2-3.1,17.9-0.5L167,435.5c1.2,0.5,2.4,0.8,3.7,0.8h98v-17.8h-80.2
	c-9.8,0-17.8-8-17.8-17.8c0-9.8,8-17.8,17.8-17.8h68.3c1.5,0,2.9-0.4,4.2-1.1l2.3-1.3C298.2,361.6,340.2,361.1,375.5,379.3z"/>
<path id="XMLID_28_" class="st7" d="M493.6,154c42.1,120.3-15.2,206.2-15.2,206.2l9,22.7l-59.3,11.8v-62.3l24.2,9.7l19.2-67.6
	l-3.8-74.7L493.6,154z"/>
<path id="XMLID_76_" class="st9" d="M104.5,384.5c-0.5,0.7-0.9,1.5-1.3,2.3L73.1,373c-8.1-3.7-17.3-4.4-25.9-2.1
	C16.9,321.5,4.7,263,12.8,205.5c4.2-29.8,13.7-58.5,28.1-84.8c2.1-3.9,1.1-8.7-2.4-11.4l-9-6.8l57.1-16.4l-0.3,59.4l-3-2.3
	c-2.1-1.6-4.8-2.2-7.4-1.6c-2.6,0.6-4.8,2.3-5.9,4.7c-25,50.7-28.9,109.3-10.6,162.8C69,337.1,84.4,362.7,104.5,384.5z"/>
<path id="XMLID_81_" class="st9" d="M480.9,371.6c0,0,9.3,4,8.8,6.7c-2.7,14.6-57.1,16.4-57.1,16.4s-13-52.8,0.3-59.4
	c0.9-0.5,3.3,2.5,3.3,2.5c2.1,1.6,4.8,2.2,7.4,1.6c2.6-0.6,4.8-2.3,5.9-4.7c10.1-20.3,16.8-42.1,20-64.5
	C485.8,154.4,405,47,289.4,30.7c-50.3-7.2-101.6,4-144.3,31.6l-20.2-31.7C175.2-1.7,235.4-14.9,294.6-6.5
	c81.1,11.5,151.3,62,188,135.2s35.1,159.7-4.2,231.5C476.3,364.1,477.4,369,480.9,371.6z"/>
<g id="XMLID_71_" class="st0">
	<g id="XMLID_29_" class="st3">
		<path id="XMLID_30_" class="st5" d="M257.5,226.6c0.8,0,1.5,0.1,2.2,0.2v-22.1c-0.7,0-1.5-0.1-2.2-0.1c-6,0-11-4.9-11-11
			s4.9-11,11-11c0.7,0,1.5,0.1,2.2,0.2v-43.9c-0.7-0.1-1.4-0.2-2.2-0.2c-6.1,0-11,4.9-11,11v12.8c-12.8,4.5-21.9,16.7-21.9,31
			C224.6,211.8,239.4,226.6,257.5,226.6z"/>
		<path id="XMLID_32_" class="st5" d="M257.5,248.5c-4.7,0-9.7-2.9-14.2-8.3c-3.9-4.6-10.8-5.2-15.5-1.3c-4.6,3.9-5.2,10.8-1.3,15.5
			c5.9,7,12.8,11.8,20.1,14.3v12.8c0,6.1,4.9,11,11,11c0.8,0,1.5-0.1,2.2-0.2v-43.9C259,248.5,258.3,248.5,257.5,248.5z"/>
		<path id="XMLID_83_" class="st5" d="M259.7,95c-66.5,0-120.7,54.1-120.7,120.7c0,66.5,54.1,120.7,120.7,120.7
			s120.7-54.1,120.7-120.7C380.4,149.1,326.3,95,259.7,95z M259.7,314.4c-54.4,0-98.7-44.3-98.7-98.7c0-54.4,44.3-98.7,98.7-98.7
			c54.4,0,98.7,44.3,98.7,98.7C358.5,270.1,314.2,314.4,259.7,314.4z"/>
	</g>
	<path id="XMLID_25_" class="st1" d="M259.7,314.4c54.4,0,98.7-44.3,98.7-98.7c0-54.4-44.3-98.7-98.7-98.7V314.4z M268.5,268.6v12.9
		c0,6.1-4.9,11-11,11c-6.1,0-11-4.9-11-11v-12.8c-7.3-2.5-14.2-7.3-20.1-14.3c-3.9-4.6-3.3-11.5,1.3-15.5c4.6-3.9,11.6-3.3,15.5,1.3
		c4.5,5.4,9.6,8.3,14.2,8.3c6,0,11-4.9,11-11c0-6.1-4.9-11-11-11c-18.2,0-32.9-14.8-32.9-32.9c0-14.3,9.2-26.5,21.9-31v-12.8
		c0-6.1,4.9-11,11-11c6.1,0,11,4.9,11,11v12.8c5,1.7,10.6,4.7,16.2,10.1c4.3,4.2,4.5,11.2,0.3,15.5c-4.2,4.3-11.2,4.5-15.5,0.3
		c-3.9-3.8-8-5.7-11.9-5.7c-6,0-11,4.9-11,11s4.9,11,11,11c18.1,0,32.9,14.8,32.9,32.9C290.5,251.9,281.3,264.1,268.5,268.6z"/>
	<path id="XMLID_72_" class="st2" d="M257.5,204.7c-6,0-11-4.9-11-11s4.9-11,11-11c3.9,0,8,2,11.9,5.7c4.3,4.2,11.3,4.1,15.5-0.3
		c4.2-4.4,4.1-11.3-0.3-15.5c-5.6-5.4-11.1-8.4-16.2-10.1v-12.8c0-6.1-4.9-11-11-11c-6.1,0-11,4.9-11,11v12.8
		c-12.8,4.5-21.9,16.7-21.9,31c0,18.1,14.8,32.9,32.9,32.9c6,0,11,4.9,11,11c0,6-4.9,11-11,11c-4.7,0-9.7-2.9-14.2-8.3
		c-3.9-4.6-10.8-5.2-15.5-1.3c-4.6,3.9-5.2,10.8-1.3,15.5c5.9,7,12.8,11.8,20.1,14.3v12.8c0,6.1,4.9,11,11,11c6.1,0,11-4.9,11-11
		v-12.9c12.8-4.5,21.9-16.7,21.9-31C290.5,219.4,275.7,204.7,257.5,204.7z"/>
</g>
<g id="XMLID_97_" class="st0">
	<g id="XMLID_101_" class="st3">
		<path id="XMLID_103_" class="st5" d="M394.4,334.7c0,1.3-1.1,2.4-2.4,2.4c-3.4,0-6.1,2.8-6.1,6.1c0,1.3-1.1,2.4-2.4,2.4
			c-1.3,0-2.4-1.1-2.4-2.4c0-6,4.9-10.8,10.9-10.8C393.3,332.3,394.4,333.4,394.4,334.7z"/>
		<path id="XMLID_102_" class="st5" d="M379.6,343.2c0,1.3-1.1,2.4-2.4,2.4c-1.3,0-2.4-1.1-2.4-2.4c0-3.4-2.8-6.1-6.1-6.1
			c-1.3,0-2.4-1.1-2.4-2.4s1.1-2.4,2.4-2.4C374.8,332.3,379.6,337.2,379.6,343.2z"/>
	</g>
	<g id="XMLID_98_" class="st3">
		<path id="XMLID_100_" class="st5" d="M379.6,316.7c0,6-4.9,10.8-10.9,10.9c-1.3,0-2.4-1.1-2.4-2.4c0-1.3,1.1-2.4,2.4-2.4
			c3.4,0,6.1-2.8,6.1-6.1c0-1.3,1-2.4,2.4-2.4C378.6,314.4,379.6,315.4,379.6,316.7z"/>
		<path id="XMLID_99_" class="st5" d="M394.4,325.2c0,1.3-1,2.4-2.3,2.4c-6,0-10.9-4.9-10.9-10.9c0-1.3,1.1-2.4,2.4-2.4
			c1.3,0,2.3,1.1,2.4,2.4c0,3.4,2.8,6.1,6.1,6.1C393.3,322.9,394.4,323.9,394.4,325.2z"/>
	</g>
</g>
<g id="XMLID_80_" class="st0">
	<g id="XMLID_88_" class="st3">
		<path id="XMLID_90_" class="st5" d="M132.4,312.8c0,1.3-1.1,2.4-2.4,2.4c-3.4,0-6.1,2.8-6.1,6.1c0,1.3-1.1,2.4-2.4,2.4
			c-1.3,0-2.4-1.1-2.4-2.4c0-6,4.9-10.8,10.9-10.8C131.4,310.4,132.4,311.5,132.4,312.8z"/>
		<path id="XMLID_89_" class="st5" d="M117.7,321.2c0,1.3-1.1,2.4-2.4,2.4c-1.3,0-2.4-1.1-2.4-2.4c0-3.4-2.8-6.1-6.1-6.1
			c-1.3,0-2.4-1.1-2.4-2.4s1.1-2.4,2.4-2.4C112.8,310.4,117.7,315.3,117.7,321.2z"/>
	</g>
	<g id="XMLID_82_" class="st3">
		<path id="XMLID_87_" class="st5" d="M117.7,294.8c0,6-4.9,10.8-10.9,10.9c-1.3,0-2.4-1.1-2.4-2.4c0-1.3,1.1-2.4,2.4-2.4
			c3.4,0,6.1-2.8,6.1-6.1c0-1.3,1-2.4,2.4-2.4C116.6,292.4,117.7,293.5,117.7,294.8z"/>
		<path id="XMLID_85_" class="st5" d="M132.4,303.3c0,1.3-1,2.4-2.3,2.4c-6,0-10.9-4.9-10.9-10.9c0-1.3,1.1-2.4,2.4-2.4
			c1.3,0,2.3,1.1,2.4,2.4c0,3.4,2.8,6.1,6.1,6.1C131.4,300.9,132.4,302,132.4,303.3z"/>
	</g>
</g>
<rect id="XMLID_152_" x="593" y="-48" class="st10" width="1336" height="596"/>
<g id="XMLID_151_" class="st0">
	<g id="XMLID_75_" class="st3">
		<g id="XMLID_74_">
			<path id="XMLID_56_" class="st5" d="M489.7,49.7c0,1.2-1,2.2-2.2,2.2c-3.1,0-5.6,2.5-5.6,5.6c0,1.2-1,2.2-2.2,2.2
				c-1.2,0-2.2-1-2.2-2.2c0-5.5,4.4-9.9,9.9-9.9C488.8,47.6,489.7,48.5,489.7,49.7z"/>
			<path id="XMLID_50_" class="st5" d="M476.2,57.5c0,1.2-1,2.2-2.2,2.2c-1.2,0-2.2-1-2.2-2.2c0-3.1-2.5-5.6-5.6-5.6
				c-1.2,0-2.2-1-2.2-2.2c0-1.2,1-2.2,2.2-2.2C471.8,47.6,476.2,52,476.2,57.5z"/>
		</g>
		<g id="XMLID_70_">
			<path id="XMLID_58_" class="st5" d="M476.2,33.3c0,5.5-4.5,9.9-9.9,9.9c-1.2,0-2.2-1-2.2-2.2c0-1.2,1-2.2,2.2-2.2
				c3.1,0,5.6-2.5,5.6-5.6c0-1.2,1-2.2,2.2-2.2C475.3,31.1,476.2,32.1,476.2,33.3z"/>
			<path id="XMLID_54_" class="st5" d="M489.7,41.1c0,1.2-1,2.2-2.2,2.2c-5.5,0-9.9-4.4-9.9-9.9c0-1.2,1-2.2,2.2-2.2
				c1.2,0,2.2,1,2.2,2.2c0,3.1,2.5,5.6,5.6,5.6C488.8,38.9,489.7,39.9,489.7,41.1z"/>
		</g>
	</g>
	<g id="XMLID_120_" class="st3">
		<g id="XMLID_125_">
			<path id="XMLID_127_" class="st5" d="M382.7,343.5c0,1.2-1,2.2-2.2,2.2c-3.1,0-5.6,2.5-5.6,5.6c0,1.2-1,2.2-2.2,2.2
				c-1.2,0-2.2-1-2.2-2.2c0-5.5,4.4-9.9,9.9-9.9C381.7,341.3,382.7,342.3,382.7,343.5z"/>
			<path id="XMLID_126_" class="st5" d="M369.2,351.2c0,1.2-1,2.2-2.2,2.2c-1.2,0-2.2-1-2.2-2.2c0-3.1-2.5-5.6-5.6-5.6
				c-1.2,0-2.2-1-2.2-2.2s1-2.2,2.2-2.2C364.7,341.3,369.2,345.8,369.2,351.2z"/>
		</g>
		<g id="XMLID_122_">
			<path id="XMLID_124_" class="st5" d="M369.2,327c0,5.5-4.5,9.9-9.9,9.9c-1.2,0-2.2-1-2.2-2.2c0-1.2,1-2.2,2.2-2.2
				c3.1,0,5.6-2.5,5.6-5.6c0-1.2,1-2.2,2.2-2.2C368.2,324.9,369.2,325.8,369.2,327z"/>
			<path id="XMLID_123_" class="st5" d="M382.7,334.8c0,1.2-1,2.2-2.2,2.2c-5.5,0-9.9-4.4-9.9-9.9c0-1.2,1-2.2,2.2-2.2
				c1.2,0,2.2,1,2.2,2.2c0,3.1,2.5,5.6,5.6,5.6C381.7,332.6,382.7,333.6,382.7,334.8z"/>
		</g>
	</g>
	<path id="Path_7503_3_" class="st2" d="M168.7,110.6c2.2-2.1,2.3-5.7,0.2-7.9l0,0c-2.1-2.3-5.7-2.4-7.9-0.2
		c-2.3,2.1-2.4,5.7-0.2,7.9C162.9,112.6,166.4,112.7,168.7,110.6z M182.3,97.8c2.2-2.1,2.3-5.7,0.2-7.9l0,0
		c-2.1-2.3-5.7-2.3-7.9-0.2c-2.3,2.1-2.4,5.7-0.2,7.9C176.5,99.8,180,99.9,182.3,97.8z M195.8,85c2.3-2.1,2.4-5.7,0.2-7.9
		c-2.1-2.2-5.7-2.3-7.9-0.2c-2.2,2.1-2.3,5.7-0.2,7.9C190.1,87,193.6,87.1,195.8,85z M165.6,86c3.1,0.1,5.7-2.3,5.8-5.5
		c0.1-3.1-2.3-5.7-5.5-5.8c-1.5,0-2.9,0.5-4,1.5l0,0c-1.1,1-1.7,2.4-1.8,3.9C160,83.3,162.5,85.9,165.6,86z M152,99.7
		c3.1,0.1,5.7-2.4,5.8-5.5c0.1-3.1-2.4-5.7-5.5-5.8c-1.5,0-2.9,0.5-4,1.6l-0.1,0.1c-1,1-1.7,2.4-1.7,3.8
		C146.5,97,148.9,99.6,152,99.7z M137.4,112.7c3.1,0.1,5.7-2.4,5.8-5.5c0.1-3.1-2.4-5.7-5.5-5.8c-1.5-0.1-3,0.5-4,1.6l-0.1,0.1
		c-1,1-1.7,2.4-1.7,3.8C131.8,110,134.2,112.6,137.4,112.7z"/>
	<circle id="XMLID_22_" class="st1" cx="311.9" cy="169.7" r="52.2"/>
	<path id="XMLID_119_" class="st1" d="M115.6,227.4l131.8,134.5c0,0-38.4,30.2-65.9,17.8c-27.5-12.4-90.6-89.2-90.6-89.2
		L115.6,227.4z"/>
	<path id="XMLID_121_" class="st1" d="M221.3,324.8c0,0,211.4-122.2,197.7-264.9c0,0,20.6-15.1,20.6,19.2s-15.1,199-175.7,280
		S221.3,324.8,221.3,324.8z"/>
	<g id="XMLID_23_" class="st3">
		<g id="XMLID_37_">
			<defs>
				<rect id="XMLID_59_" x="10.3" y="33.3" width="435.6" height="435.6"/>
			</defs>
			<clipPath id="XMLID_154_">
				<use xlink:href="#XMLID_59_"  style="overflow:visible;"/>
			</clipPath>
			<path id="XMLID_112_" class="st11" d="M445.4,65.8c-0.9-17.3-14.7-31.1-32-32c-34.9-1.9-103.2,0-168.6,33.7
				c-33.3,17.2-68.5,46.4-96.6,80.1c-0.3,0.4-0.7,0.8-1,1.3l-63.8,4.9c-10.5,0.8-19.9,6.3-25.7,15.1l-43.5,65.8
				c-4.4,6.7-5.1,15-1.9,22.3c3.2,7.3,9.9,12.4,17.8,13.6l53.7,8.3c-0.2,1-0.4,2.1-0.6,3.1c-1.8,10.7,1.8,21.7,9.5,29.4l74.9,74.9
				c6.4,6.4,15.1,9.9,23.9,9.9c1.8,0,3.7-0.2,5.5-0.5c1-0.2,2.1-0.4,3.1-0.6l8.3,53.7c1.2,7.9,6.3,14.5,13.6,17.8c3,1.3,6.3,2,9.5,2
				c4.5,0,9-1.3,12.8-3.9l65.8-43.5c8.8-5.8,14.3-15.2,15.1-25.7l4.9-63.8c0.4-0.3,0.8-0.7,1.3-1c33.7-28.1,62.9-63.3,80.1-96.6
				C445.4,169,447.3,100.7,445.4,65.8L445.4,65.8z M296.1,400.2l-63,41.6l-8.1-52.4c26.6-7.8,52.9-20.4,78-37.1l-3.2,41.6
				C299.7,396.5,298.3,398.8,296.1,400.2L296.1,400.2z M185.6,368.4l-74.9-74.9c-1.9-1.9-2.8-4.6-2.4-7.2c2.2-13.3,5.7-26,10-37.9
				l112.3,112.3c-14.3,5.1-27.2,8.2-37.9,10C190.2,371.2,187.5,370.3,185.6,368.4L185.6,368.4z M85.3,179.3l41.6-3.2
				c-16.8,25.1-29.3,51.4-37.1,78L37.3,246L79,183C80.4,180.8,82.7,179.5,85.3,179.3L85.3,179.3z M315.2,311.4
				c-20.6,17.2-40.6,29.6-59.1,38.6l-127-127c11.8-24.1,26.2-44.1,38.6-59.1c26-31.2,58.4-58.1,88.8-73.8
				c60-31,123.1-32.7,155.4-30.9c4.3,0.2,7.7,3.6,7.9,7.9c1.8,32.3,0.1,95.5-30.9,155.4C373.2,253,346.3,285.4,315.2,311.4
				L315.2,311.4z M315.2,311.4"/>
			<path id="XMLID_108_" class="st11" d="M308.7,234.3c16.3,0,32.7-6.2,45.1-18.7c12.1-12.1,18.7-28.1,18.7-45.1
				s-6.6-33.1-18.7-45.1c-24.9-24.9-65.4-24.9-90.2,0c-12,12.1-18.7,28.1-18.7,45.1s6.6,33.1,18.7,45.1
				C276,228.1,292.3,234.3,308.7,234.3L308.7,234.3z M281.6,143.4c7.5-7.5,17.3-11.2,27.1-11.2c9.8,0,19.6,3.7,27.1,11.2
				c7.2,7.2,11.2,16.8,11.2,27.1c0,10.2-4,19.8-11.2,27.1c-14.9,14.9-39.2,14.9-54.1,0c-7.2-7.2-11.2-16.8-11.2-27.1
				C270.4,160.3,274.4,150.7,281.6,143.4L281.6,143.4z M281.6,143.4"/>
			<path id="XMLID_105_" class="st11" d="M23.3,392.3c3.3,0,6.5-1.2,9-3.7L74,346.9c5-5,5-13.1,0-18c-5-5-13.1-5-18,0l-41.7,41.7
				c-5,5-5,13.1,0,18C16.8,391,20,392.3,23.3,392.3L23.3,392.3z M23.3,392.3"/>
			<path id="XMLID_60_" class="st11" d="M112.2,367c-5-5-13.1-5-18,0L14,447.1c-5,5-5,13.1,0,18c2.5,2.5,5.8,3.7,9,3.7
				c3.3,0,6.5-1.2,9-3.7l80.1-80.1C117.2,380.1,117.2,372,112.2,367L112.2,367z M112.2,367"/>
		</g>
		<path id="XMLID_34_" d="M132.3,405.2l-41.7,41.7c-5,5-5,13.1,0,18c2.5,2.5,5.8,3.7,9,3.7c3.3,0,6.5-1.2,9-3.7l41.7-41.7
			c5-5,5-13.1,0-18C145.4,400.2,137.3,400.2,132.3,405.2L132.3,405.2z M132.3,405.2"/>
	</g>
</g>
<g id="XMLID_1_">
	<g id="XMLID_137_">
		<g id="XMLID_141_">
			<path id="XMLID_143_" class="st5" d="M452.1,122.6c0,1.3-1,2.3-2.3,2.3c-3.3,0-5.9,2.7-5.9,5.9c0,1.3-1,2.3-2.3,2.3
				c-1.3,0-2.3-1-2.3-2.3c0-5.8,4.7-10.5,10.5-10.5C451.1,120.3,452.1,121.3,452.1,122.6z"/>
			<path id="XMLID_142_" class="st5" d="M437.9,130.8c0,1.3-1,2.3-2.3,2.3c-1.3,0-2.3-1-2.3-2.3c0-3.3-2.7-5.9-5.9-5.9
				c-1.3,0-2.3-1-2.3-2.3s1-2.3,2.3-2.3C433.2,120.3,437.8,125,437.9,130.8z"/>
		</g>
		<g id="XMLID_138_">
			<path id="XMLID_140_" class="st5" d="M437.9,105.2c0,5.8-4.7,10.5-10.5,10.5c-1.3,0-2.3-1-2.3-2.3c0-1.3,1-2.3,2.3-2.3
				c3.3,0,5.9-2.7,5.9-5.9c0-1.3,1-2.3,2.3-2.3C436.8,103,437.9,104,437.9,105.2z"/>
			<path id="XMLID_139_" class="st5" d="M452.1,113.5c0,1.3-1,2.3-2.3,2.3c-5.8,0-10.5-4.7-10.5-10.5c0-1.3,1-2.3,2.3-2.3
				c1.3,0,2.3,1,2.3,2.3c0,3.3,2.7,5.9,5.9,5.9C451.1,111.2,452.1,112.2,452.1,113.5z"/>
		</g>
	</g>
	<g id="XMLID_144_">
		<g id="XMLID_148_">
			<path id="XMLID_150_" class="st5" d="M106.2,362.8c0,1.3-1,2.3-2.3,2.3c-3.3,0-5.9,2.7-5.9,5.9c0,1.3-1,2.3-2.3,2.3
				c-1.3,0-2.3-1-2.3-2.3c0-5.8,4.7-10.5,10.5-10.5C105.2,360.6,106.2,361.6,106.2,362.8z"/>
			<path id="XMLID_149_" class="st5" d="M92,371c0,1.3-1,2.3-2.3,2.3c-1.3,0-2.3-1-2.3-2.3c0-3.3-2.7-5.9-5.9-5.9
				c-1.3,0-2.3-1-2.3-2.3c0-1.3,1-2.3,2.3-2.3C87.3,360.6,92,365.2,92,371z"/>
		</g>
		<g id="XMLID_145_">
			<path id="XMLID_147_" class="st5" d="M92,345.5c0,5.8-4.7,10.5-10.5,10.5c-1.3,0-2.3-1-2.3-2.3c0-1.3,1-2.3,2.3-2.3
				c3.3,0,5.9-2.7,5.9-5.9c0-1.3,1-2.3,2.3-2.3C91,343.2,92,344.2,92,345.5z"/>
			<path id="XMLID_146_" class="st5" d="M106.2,353.7c0,1.3-1,2.3-2.3,2.3c-5.8,0-10.5-4.7-10.5-10.5c0-1.3,1-2.3,2.3-2.3
				c1.3,0,2.3,1,2.3,2.3c0,3.3,2.7,5.9,5.9,5.9C105.2,351.4,106.2,352.5,106.2,353.7z"/>
		</g>
	</g>
	<g id="XMLID_128_">
		<path id="XMLID_129_" class="st4" d="M278.1,67.7l-18.6-43.3c-3.6-8.3-15.4-8.3-19,0l-51.3,119l-129,12c-9,0.8-12.7,12.1-5.9,18.1
			l97.4,85.5l-28.5,126.4c-2,8.9,7.6,15.8,15.4,11.2l14.8-8.8C177.7,230.4,246.1,114.8,278.1,67.7z"/>
		<path id="XMLID_136_" class="st12" d="M439.8,155.4l-129-12l-51.3-119c-3.6-8.3-15.4-8.3-19,0l-51.3,119l-129,12
			c-9,0.8-12.7,12.1-5.9,18.1l97.4,85.5l-28.5,126.4c-2,8.9,7.6,15.8,15.4,11.2L250,330.4l111.4,66.2c7.8,4.6,17.4-2.3,15.4-11.2
			L348.3,259l97.4-85.5C452.5,167.5,448.8,156.2,439.8,155.4z"/>
		<g id="XMLID_130_">
			<path id="XMLID_135_" d="M118.1,20.3c6.6,9.1,25.1,48.4,35.8,71.2c1.7,3.6-2.8,6.8-5.7,4.1c-18.3-17.3-49.6-47.4-56.2-56.5
				c-5.2-7.2-3.6-17.3,3.7-22.5C102.8,11.4,112.9,13.1,118.1,20.3z"/>
			<path id="XMLID_134_" d="M381.9,20.3c-6.6,9.1-25.1,48.4-35.8,71.2c-1.7,3.6,2.8,6.8,5.7,4.1c18.3-17.3,49.6-47.4,56.2-56.5
				c5.2-7.2,3.6-17.3-3.7-22.5C397.2,11.4,387.1,13.1,381.9,20.3z"/>
			<path id="XMLID_133_" d="M485.9,288.2c-10.7-3.5-53.7-9.3-78.7-12.4c-3.9-0.5-5.7,4.8-2.2,6.7c22.1,12.2,60.2,32.9,70.9,36.4
				c8.5,2.8,17.6-1.9,20.3-10.3C499,300.1,494.3,291,485.9,288.2z"/>
			<path id="XMLID_132_" d="M14.1,288.2c10.7-3.5,53.7-9.3,78.7-12.4c3.9-0.5,5.7,4.8,2.2,6.7c-22.1,12.2-60.2,32.9-70.9,36.4
				c-8.5,2.8-17.6-1.9-20.3-10.3S5.7,291,14.1,288.2z"/>
			<path id="XMLID_131_" d="M234.4,470.3c0-11.3,7.9-54,12.6-78.7c0.7-3.9,6.3-3.9,7.1,0c4.7,24.8,12.6,67.5,12.6,78.7
				c0,8.9-7.2,16.1-16.1,16.1C241.6,486.4,234.4,479.2,234.4,470.3z"/>
		</g>
	</g>
</g>
</svg>
