<svg id="noun_classroom_1587084" xmlns="http://www.w3.org/2000/svg" width="80.309" height="67.202" viewBox="0 0 80.309 67.202">
  <g id="Group_2926" data-name="Group 2926">
    <path id="Path_10534" data-name="Path 10534" d="M20.856,91.215a1.8,1.8,0,0,0,1.38.645c.038,0,.075,0,.113,0a1.8,1.8,0,0,0,1.4-.824L28.581,83.5a1.8,1.8,0,0,0-.2-2.2l6.29-9.383-.747-.5-6.3,9.4a1.8,1.8,0,0,0-2.062.74l-3.51,5.468-4.723-5.651a1.791,1.791,0,0,0-1.191-.634,1.738,1.738,0,0,0-.548-.089H6.9l-.053,0a4.276,4.276,0,0,0-1.876.48,7.589,7.589,0,0,0-3.424,4.235C.623,87.706,0,91.079,0,96.172c0,1.317.042,2.748.135,4.306a1.8,1.8,0,0,0,1.793,1.693c.035,0,.071,0,.107,0a1.8,1.8,0,0,0,1.689-1.9c-.088-1.495-.128-2.856-.128-4.1-.008-5.444.786-8.5,1.565-10.1v33.716a2.779,2.779,0,0,0,5.558,0V99.5h1.042v20.289a2.779,2.779,0,0,0,5.558,0V86.984Z" transform="translate(0 -55.367)" fill="#426aa7"/>
    <ellipse id="Ellipse_41" data-name="Ellipse 41" cx="5.057" cy="5.057" rx="5.057" ry="5.057" transform="translate(6.184 13.894)" fill="#426aa7"/>
    <path id="Path_10535" data-name="Path 10535" d="M116.913,0H57.577V11.344H58.7V1.123h57.088V32.364H74.12v1.124h42.793Z" transform="translate(-44.636)" fill="#426aa7"/>
    <ellipse id="Ellipse_42" data-name="Ellipse 42" cx="5.057" cy="5.057" rx="5.057" ry="5.057" transform="translate(26.129 43.129)" fill="#426aa7"/>
    <ellipse id="Ellipse_43" data-name="Ellipse 43" cx="5.057" cy="5.057" rx="5.057" ry="5.057" transform="translate(45.121 43.129)" fill="#426aa7"/>
    <path id="Path_10536" data-name="Path 10536" d="M94.248,248.008v6.816h12.157v-6.806a9.712,9.712,0,0,1,.4.952,22.1,22.1,0,0,1,1.057,5.854h3.915a18.9,18.9,0,0,1,1.461-6.816v6.816H125.4v-6.806a9.772,9.772,0,0,1,.4.953,22.1,22.1,0,0,1,1.057,5.854h3.915a18.9,18.9,0,0,1,1.461-6.816v6.816h12.158v-6.806a9.77,9.77,0,0,1,.4.953,22.1,22.1,0,0,1,1.057,5.854h3.6c-.3-4.766-1.251-7.652-2.47-9.516a6.346,6.346,0,0,0-2.4-2.237,4.28,4.28,0,0,0-1.848-.48c-.026,0-.052,0-.079,0h-8.683c-.03,0-.059,0-.089,0a4.274,4.274,0,0,0-1.839.479,7.3,7.3,0,0,0-3.228,3.765,10.8,10.8,0,0,0-.825-1.528,6.346,6.346,0,0,0-2.4-2.237,4.28,4.28,0,0,0-1.848-.48c-.026,0-.052,0-.079,0h-8.683c-.03,0-.059,0-.089,0a4.274,4.274,0,0,0-1.839.479,7.3,7.3,0,0,0-3.228,3.765,10.8,10.8,0,0,0-.825-1.528,6.346,6.346,0,0,0-2.4-2.237,4.28,4.28,0,0,0-1.848-.48c-.026,0-.052,0-.079,0H95.984c-.03,0-.06,0-.089,0a4.276,4.276,0,0,0-1.839.479,7.582,7.582,0,0,0-3.425,4.235,24.742,24.742,0,0,0-1.446,7.518h3.6A18.913,18.913,0,0,1,94.248,248.008Z" transform="translate(-69.14 -188.064)" fill="#426aa7"/>
    <ellipse id="Ellipse_44" data-name="Ellipse 44" cx="5.057" cy="5.057" rx="5.057" ry="5.057" transform="translate(64.113 43.129)" fill="#426aa7"/>
  </g>
</svg>
