<?xml version="1.0" encoding="utf-8"?>
<!-- Generator: Adobe Illustrator 19.0.0, SVG Export Plug-In . SVG Version: 6.00 Build 0)  -->
<svg version="1.1" id="Layer_1" xmlns="http://www.w3.org/2000/svg" xmlns:xlink="http://www.w3.org/1999/xlink" x="0px" y="0px"
	 viewBox="0 0 1280 1280" style="enable-background:new 0 0 1280 1280;" xml:space="preserve">
<style type="text/css">
	.st0{fill:#3E6BAA;}
</style>
<g>
	<g>
		<path class="st0" d="M1156.6,144.1h-103.3v-41.3c0-45.6-37-82.7-82.7-82.7c-45.6,0-82.7,37-82.7,82.7v41.3H722.7v-41.3
			c0-45.6-37-82.7-82.7-82.7c-45.6,0-82.7,37-82.7,82.7v41.3H392v-41.3c0-45.6-37-82.7-82.7-82.7c-45.6,0-82.7,37-82.7,82.7v41.3
			H123.4c-57.1,0-103.3,46.3-103.3,103.3v826.5c0,57.1,46.3,103.3,103.3,103.3H702c11.4,0,20.7-9.3,20.7-20.7
			c0-11.4-9.3-20.7-20.7-20.7H123.4c-34.2-0.1-61.9-27.8-62-62V433.4h1157.1v351.3c0,11.4,9.3,20.7,20.7,20.7s20.7-9.3,20.7-20.7
			V247.4C1259.9,190.3,1213.6,144.1,1156.6,144.1L1156.6,144.1z M929.3,102.8c0-22.8,18.5-41.3,41.3-41.3
			c22.8,0,41.3,18.5,41.3,41.3v124c0,22.8-18.5,41.3-41.3,41.3c-22.8,0-41.3-18.5-41.3-41.3V102.8z M598.7,102.8
			c0-22.8,18.5-41.3,41.3-41.3c22.8,0,41.3,18.5,41.3,41.3v124c0,22.8-18.5,41.3-41.3,41.3c-22.8,0-41.3-18.5-41.3-41.3V102.8z
			 M268.1,102.8c0-22.8,18.5-41.3,41.3-41.3c22.8,0,41.3,18.5,41.3,41.3v124c0,22.8-18.5,41.3-41.3,41.3
			c-22.8,0-41.3-18.5-41.3-41.3V102.8z M1218.6,392H61.4V247.4c0.1-34.2,27.8-61.9,62-62h103.3v41.3c0,45.6,37,82.7,82.7,82.7
			c45.6,0,82.7-37,82.7-82.7v-41.3h165.3v41.3c0,45.6,37,82.7,82.7,82.7c45.6,0,82.7-37,82.7-82.7v-41.3H888v41.3
			c0,45.6,37,82.7,82.7,82.7c45.6,0,82.7-37,82.7-82.7v-41.3h103.3c34.2,0.1,61.9,27.8,62,62V392z M1218.6,392"/>
		<path class="st0" d="M598.7,578c0-22.8-18.5-41.3-41.3-41.3h-82.7c-22.8,0-41.3,18.5-41.3,41.3v62c0,22.8,18.5,41.3,41.3,41.3
			h82.7c22.8,0,41.3-18.5,41.3-41.3V578z M474.7,640v-62h82.7v62H474.7z M474.7,640"/>
		<path class="st0" d="M350.7,578c0-22.8-18.5-41.3-41.3-41.3h-82.7c-22.8,0-41.3,18.5-41.3,41.3v62c0,22.8,18.5,41.3,41.3,41.3
			h82.7c22.8,0,41.3-18.5,41.3-41.3V578z M226.7,640v-62h82.7v62H226.7z M226.7,640"/>
		<path class="st0" d="M1053.3,681.3c22.8,0,41.3-18.5,41.3-41.3v-62c0-22.8-18.5-41.3-41.3-41.3h-82.7c-22.8,0-41.3,18.5-41.3,41.3
			v62c0,22.8,18.5,41.3,41.3,41.3H1053.3z M970.6,578h82.7v62h-82.7V578z M970.6,578"/>
		<path class="st0" d="M598.7,764c0-22.8-18.5-41.3-41.3-41.3h-82.7c-22.8,0-41.3,18.5-41.3,41.3v62c0,22.8,18.5,41.3,41.3,41.3
			h82.7c22.8,0,41.3-18.5,41.3-41.3V764z M474.7,826v-62h82.7v62H474.7z M474.7,826"/>
		<path class="st0" d="M350.7,764c0-22.8-18.5-41.3-41.3-41.3h-82.7c-22.8,0-41.3,18.5-41.3,41.3v62c0,22.8,18.5,41.3,41.3,41.3
			h82.7c22.8,0,41.3-18.5,41.3-41.3V764z M226.7,826v-62h82.7v62H226.7z M226.7,826"/>
		<path class="st0" d="M557.3,908.6h-82.7c-22.8,0-41.3,18.5-41.3,41.3v62c0,22.8,18.5,41.3,41.3,41.3h82.7
			c22.8,0,41.3-18.5,41.3-41.3v-62C598.7,927.1,580.2,908.6,557.3,908.6L557.3,908.6z M474.7,1011.9v-62h82.7v62H474.7z
			 M474.7,1011.9"/>
		<path class="st0" d="M722.7,681.3h82.7c22.8,0,41.3-18.5,41.3-41.3v-62c0-22.8-18.5-41.3-41.3-41.3h-82.7
			c-22.8,0-41.3,18.5-41.3,41.3v62C681.3,662.8,699.8,681.3,722.7,681.3L722.7,681.3z M722.7,578h82.7v62h-82.7V578z M722.7,578"/>
		<path class="st0" d="M681.3,826c0,22.8,18.5,41.3,41.3,41.3c11.4,0,20.7-9.3,20.7-20.7c0-11.4-9.3-20.7-20.7-20.7v-62h82.7
			c11.4,0,20.7-9.3,20.7-20.7c0-11.4-9.3-20.7-20.7-20.7h-82.7c-22.8,0-41.3,18.5-41.3,41.3V826z M681.3,826"/>
		<g>
			<path class="st0" d="M309.4,908.6h-82.7c-22.8,0-41.3,18.5-41.3,41.3v62c0,22.8,18.5,41.3,41.3,41.3h82.7
				c22.8,0,41.3-18.5,41.3-41.3v-62C350.7,927.1,332.2,908.6,309.4,908.6L309.4,908.6z M226.7,1011.9v-62h82.7v62H226.7z
				 M226.7,1011.9"/>
			<path class="st0" d="M991.3,722.6c-108.6,0-206.6,65.4-248.2,165.8c-41.6,100.4-18.6,215.9,58.2,292.7
				c76.8,76.8,192.4,99.8,292.7,58.2c100.4-41.6,165.8-139.5,165.8-248.2C1259.7,843,1139.6,722.8,991.3,722.6L991.3,722.6z
				 M991.3,1218.6c-91.9,0-174.8-55.4-210-140.3c-35.2-84.9-15.7-182.7,49.3-247.7s162.8-84.5,247.7-49.3
				c84.9,35.2,140.3,118.1,140.3,210C1218.4,1116.7,1116.7,1218.4,991.3,1218.6L991.3,1218.6z M991.3,1218.6"/>
		</g>
	</g>
	<path class="st0" d="M985.9,829.1h-35.5v185l111.8,111.8l25.1-25.1L985.9,999.4V829.1z M985.9,829.1"/>
</g>
</svg>
