<svg id="noun_Address_2340110" xmlns="http://www.w3.org/2000/svg" width="86.478" height="69" viewBox="0 0 86.478 69">
  <g id="Group_2929" data-name="Group 2929" transform="translate(0 0)">
    <path id="Path_10543" data-name="Path 10543" d="M91.65,53.918,68.164,30.433a2.418,2.418,0,0,0-3.368,0L41.129,53.918a2.389,2.389,0,0,0,1.73,4.1h3.823v23.03a1.632,1.632,0,0,0,1.639,1.639H59.061c1.365,0,2.367-1.092,2.367-3.277V71.578a5.18,5.18,0,0,1,4.1-5.1,4.953,4.953,0,0,1,4.369,1.365A5.025,5.025,0,0,1,71.35,71.4v9.649a1.632,1.632,0,0,0,1.639,1.639H84.549a1.632,1.632,0,0,0,1.639-1.639V58.014h3.823A2.382,2.382,0,0,0,91.65,53.918Z" transform="translate(-5.9 -13.683)" fill="#426aa7"/>
    <path id="Path_10544" data-name="Path 10544" d="M29,13.1a1.01,1.01,0,0,0-1-1H20.9a1.01,1.01,0,0,0-1,1v5.1H29Z" transform="translate(-4.061 -12.1)" fill="#426aa7"/>
    <path id="Path_10545" data-name="Path 10545" d="M19.9,82.835a1.01,1.01,0,0,0,1,1H28a1.01,1.01,0,0,0,1-1V42.6H19.9Z" transform="translate(-4.061 -14.836)" fill="#426aa7"/>
    <path id="Path_10546" data-name="Path 10546" d="M40.459,37.347l8.557-6.463a1.023,1.023,0,0,0,0-1.639l-8.557-6.463a1.316,1.316,0,0,0-.637-.182H3.5a1.01,1.01,0,0,0-1,1V36.527a1.01,1.01,0,0,0,1,1H39.822A1.316,1.316,0,0,0,40.459,37.347Z" transform="translate(-2.5 -13.042)" fill="#426aa7"/>
  </g>
</svg>
