<svg xmlns="http://www.w3.org/2000/svg" width="64.783" height="70.888" viewBox="0 0 64.783 70.888">
  <g id="Group_4" data-name="Group 4" transform="translate(154.704 -379.317)">
    <path id="Rectangle_376" data-name="Rectangle 376" d="M29.844,0H53.583a0,0,0,0,1,0,0V59.689a0,0,0,0,1,0,0H29.844A29.844,29.844,0,0,1,0,29.844v0A29.844,29.844,0,0,1,29.844,0Z" transform="translate(-154.704 390.516)" fill="#416aa6"/>
    <path id="Rectangle_377" data-name="Rectangle 377" d="M5.6,0h0a5.6,5.6,0,0,1,5.6,5.6v0a5.6,5.6,0,0,1-5.6,5.6H0a0,0,0,0,1,0,0V5.6A5.6,5.6,0,0,1,5.6,0Z" transform="translate(-101.12 379.317)" fill="#416aa6"/>
    <path id="Path_26" data-name="Path 26" d="M205.81,416.864c-.289-.014-.515-.035-.74-.036-5.8,0-11.595-.034-17.392.01a24.109,24.109,0,0,0-10.908,2.748,25.515,25.515,0,0,0-13.333,27.892c2.3,11.308,12.786,20.089,24.307,20.138,5.746.024,11.493,0,17.239,0,.268,0,.537-.03.8-.047V448.8H188.868a17.969,17.969,0,0,0,.463-1.758c.1-.609.4-.742.982-.739,4.856.023,9.713.013,14.569.013h.91v-2.838H190.026a1.256,1.256,0,1,1-.01-2.5h15.772v-2.838h-.973q-7.284,0-14.569-.012c-.261,0-.69-.108-.754-.276a22.907,22.907,0,0,1-.631-2.215H205.81Zm-2.782,15.984h-.9c-4.984,0-9.968-.007-14.952.015a1.918,1.918,0,0,0-1.113.334c-3.646,2.888-7.269,5.807-10.9,8.719-.1.078-.182.168-.32.3.183.171.335.33.5.466,3.527,2.834,7.049,5.675,10.6,8.482a2.147,2.147,0,0,0,1.235.42c4.958.028,9.916.018,14.875.018h.951v13.178a2.924,2.924,0,0,1-.392.056c-5.086,0-10.175.124-15.256-.032a22.612,22.612,0,0,1-2.345-44.968,18.019,18.019,0,0,1,2.656-.213c4.908-.02,9.815-.01,14.723-.008.2,0,.393.03.628.049ZM187.614,445.1l-.98,3.141-6.126-4.413v-3.366l6.207-4.413.9,2.767-1.806,3.331Z" transform="translate(-312.193 -21.861)" fill="#fff"/>
  </g>
</svg>
