<svg xmlns="http://www.w3.org/2000/svg" width="96.533" height="98.185" viewBox="0 0 96.533 98.185">
  <g id="costumer" transform="translate(-12.9 -20.9)">
    <g id="Group_2418" data-name="Group 2418" transform="translate(34.795 31.724)">
      <path id="Path_7061" data-name="Path 7061" d="M178.572,222.93v16.582h-5.18a9.46,9.46,0,0,0-2.876,1.224c-3.243,1.774-8.423,5.1-12.645,7.71a51.578,51.578,0,0,1-6.506,3.732c-1.265.388-2.835.877-4.548,1.387-8.016,2.447-19.58,5.915-22.354,6.527-1.815.408-3.325-.9-3.957-2.9a5.228,5.228,0,0,1-.245-1.9c4.671-1.367,10.626-3.161,15.358-4.589,1.713-.53,3.284-1,4.548-1.387a51.581,51.581,0,0,0,6.506-3.732c4.2-2.631,9.4-5.956,12.645-7.71a9.258,9.258,0,0,1,2.876-1.224c2.2,0,1.04-16.582,1.04-16.582a13.434,13.434,0,0,0-2.325-3.1c.122-.02.245-.02.367-.041-4.528.469-6.935,1.856-11.707,1.856h-4.63v-4.283a6.188,6.188,0,0,1,4.344-5.874c.551-.184,1.1-.388,1.693-.632,0,0-.836,3.019,5.69,5.874a43.553,43.553,0,0,1,5.425,2.651c.163.1.306.184.449.286a.566.566,0,0,0-.184.02c.591-.041,1.224-.061,1.917-.061a11.167,11.167,0,0,1,10.2,6.139h4.1Zm-26.249,5.181H144.9v9.321l5.65-1.754Z" transform="translate(-120.25 -180.664)" fill="#4890de" fill-rule="evenodd"/>
      <path id="Path_7062" data-name="Path 7062" d="M240.157,74c.428-.245,11.544,1.285,11.544,1.285a64.692,64.692,0,0,1,0,16.521,12.5,12.5,0,0,1-7.465,9.953,2.852,2.852,0,0,1-4.079-2.59V75.159S239.729,74.241,240.157,74Z" transform="translate(-215.55 -73.97)" fill="#4890de"/>
    </g>
    <path id="Path_7063" data-name="Path 7063" d="M164.893,88.566a1.636,1.636,0,0,0,1.632-1.632V82.55a1.636,1.636,0,0,0-1.632-1.632H161.67a14.063,14.063,0,0,0-2.835-3.284,12.642,12.642,0,0,0-8.3-2.876,28.6,28.6,0,0,0-4.467.326,1.628,1.628,0,0,0-.959-1.938c-5.813-2.345-7.281-4.079-7.628-4.671a16.259,16.259,0,0,0,5.527-7.648,10.465,10.465,0,0,0,.632-3.63V40.392a1.637,1.637,0,0,0-.714-1.346,1.654,1.654,0,0,0-1.509-.184c-1.917.734-3.794.265-5.976-.286-3-.755-6.384-1.591-10.035,1a1.638,1.638,0,0,0,1.9,2.672c2.427-1.734,4.609-1.183,7.342-.489a16.284,16.284,0,0,0,5.711.693V57.2a7.455,7.455,0,0,1-.428,2.509c-1.061,2.9-3.732,7.771-9.892,7.771-6.058,0-8.77-4.507-9.851-7.2a7.247,7.247,0,0,1-.53-2.733V41.86a5.827,5.827,0,0,1,2.223-4.344,11.925,11.925,0,0,1,9.341-2.447,27.758,27.758,0,0,1,3.406.8c2.733.775,5.568,1.57,9.28.041a1.636,1.636,0,1,0-1.265-3.019c-2.651,1.1-4.65.551-7.138-.163a33.947,33.947,0,0,0-3.814-.9,15.191,15.191,0,0,0-11.952,3.2,9.014,9.014,0,0,0-3.365,6.812V57.524a10.32,10.32,0,0,0,.755,3.936,15.882,15.882,0,0,0,5.262,6.914,17.848,17.848,0,0,1-6.282,4.569.827.827,0,0,0-.184.1c-.653.428-6.486,4.222-8.566,6.873-4.507,5.752-4.3,17.642-4.283,18.152a1.628,1.628,0,0,0,1.632,1.591h.041a1.624,1.624,0,0,0,1.591-1.672c0-.1-.184-11.218,3.61-16.072,1.448-1.856,5.956-4.977,7.669-6.1a19.989,19.989,0,0,0,7.71-5.915,13.561,13.561,0,0,0,4.671.8,12.912,12.912,0,0,0,4.528-.775c.836,1.468,2.978,3.467,8.219,5.711-.2.041-.388.082-.591.143a25.2,25.2,0,0,1-6.384.9H125.488a6.049,6.049,0,0,0-5.772,6.017c0,4.12,2.549,6.567,6.792,6.567h11.422a1.35,1.35,0,0,1,.306.02c-.02.041-.02.082-.041.122a3.343,3.343,0,0,1-.49.877c-1.285,1.774-2.549,3.467-3.773,5.058H114.393a5.971,5.971,0,0,0-5.976,5.976,2.216,2.216,0,0,0,.02.367,6,6,0,0,0-5.3,5.935,2.6,2.6,0,0,0,.02.408,5.907,5.907,0,0,0,2.529,4.487,5.7,5.7,0,0,0-.388,4.732c.816,2.57,2.692,4.1,4.834,4.1a4.528,4.528,0,0,0,1.04-.122c3.284-.734,18.03-5.221,22.476-6.567,1.53-.469,2.917-.9,4.1-1.244l.469-.143c.918-.286,2.794-1.346,6.894-3.916.857-.53,1.754-1.1,2.672-1.672,3.61-2.264,7.342-4.609,9.872-6a10.592,10.592,0,0,1,2.162-1.02h5.1a1.636,1.636,0,0,0,1.632-1.632V94.869a1.632,1.632,0,1,0-3.263,0V97.4h-3.549c-.632,0-1.469.245-3.651,1.428-2.631,1.428-6.4,3.794-10.055,6.1-.918.571-1.815,1.142-2.672,1.672a54.407,54.407,0,0,1-6.119,3.549l-.449.143c-1.183.367-2.57.8-4.079,1.244-9.1,2.774-19.723,5.935-22.231,6.506-1.305.286-1.917-1.448-2.04-1.795a2.437,2.437,0,0,1,.143-2.182,2.175,2.175,0,0,1,.836-.673h.02a1.481,1.481,0,0,1,.245-.1c2.835-1.163,20.742-9.28,21.517-9.627a1.759,1.759,0,0,0,.551-.408h0c.02-.041.143-.163.326-.388.041-.041.061-.082.1-.122.469-.551,1.428-1.693,2.815-3.426.326-.408.673-.857,1.061-1.346h0c1.387-1.795,2.835-3.732,4.324-5.772a7.669,7.669,0,0,0,.9-1.632,3.294,3.294,0,0,0-.224-3.182,3.466,3.466,0,0,0-3.08-1.367h-11.4c-2.488,0-3.528-.979-3.528-3.3a2.851,2.851,0,0,1,2.509-2.753H135.91a29.54,29.54,0,0,0,7.139-.979,30.224,30.224,0,0,1,7.546-1.02,9.591,9.591,0,0,1,8.791,5.323,1.619,1.619,0,0,0,1.407.816H163.3v2.753A1.588,1.588,0,0,0,164.893,88.566Zm-50.5,10.116h16.949c-.551.693-1,1.224-1.346,1.611l-5.181.347-13.155.9V101.4A2.756,2.756,0,0,1,114.393,98.683Zm-5.446,6.323c.1,0,.2-.02.306-.02h.184l.265-.02h.163l.245-.02c.286-.02.469-.041.469-.041l11.932-.816c-.428.2-.877.388-1.305.591-.02.02-.041.02-.082.041-.265.122-.53.245-.816.367l-.122.061c-.388.184-.8.347-1.183.53-.02,0-.02,0-.041.02-.143.061-.265.122-.408.184-.02.02-.041.02-.061.041-.388.184-.775.347-1.163.53l-.122.061a2.058,2.058,0,0,0-.306.143c-.041.02-.1.041-.143.061-.122.061-.224.1-.347.163-.02.02-.061.02-.082.041-.122.061-.224.1-.347.163-.041.02-.1.041-.143.061-.2.082-.408.184-.591.265l-.122.061c-.082.041-.184.082-.265.122-.061.041-.143.061-.2.1-.082.041-.143.061-.224.1-.1.041-.184.082-.286.122a.611.611,0,0,0-.163.082c-.122.061-.245.1-.367.163-.041.02-.1.041-.143.061-.1.041-.224.1-.326.143a.611.611,0,0,0-.163.082,2.058,2.058,0,0,0-.306.143c-.041.02-.061.041-.1.041a2.057,2.057,0,0,0-.306.143l-.122.061c-.265.122-.53.224-.775.347-.02,0-.041.02-.061.02-.1.041-.2.1-.306.143-.02.02-.041.02-.082.041-.1.041-.2.082-.286.122-.02,0-.041.02-.061.02-.224.1-.449.2-.653.286h-.02c-.1.041-.184.082-.286.122-.02,0-.02,0-.041.02-.286.122-.53.224-.755.326h0c-.061.02-.122.061-.184.082a.02.02,0,0,0-.02.02,1,1,0,0,0-.143.061h0a2.7,2.7,0,0,1-2.04-2.447v-.184A2.685,2.685,0,0,1,108.947,105.005Z" transform="translate(-71.776 -8.56)"/>
    <path id="Path_7064" data-name="Path 7064" d="M12.9,345.2h4.446v29.737H12.9Z" transform="translate(0 -258.157)" fill="#4890de"/>
    <path id="Path_7065" data-name="Path 7065" d="M123.3,26.284a2.133,2.133,0,0,0-2.121-2.121,1.632,1.632,0,1,1,0-3.263,5.384,5.384,0,0,1,0,10.769,1.632,1.632,0,1,1,0-3.263A2.133,2.133,0,0,0,123.3,26.284ZM105.64,81.332h10.2a1.632,1.632,0,0,0,0-3.263h-10.2a1.632,1.632,0,1,0,0,3.263ZM125,83.535H106.68a1.632,1.632,0,0,0,0,3.263H125a1.632,1.632,0,0,0,0-3.263Zm-13.5,13.991a1.636,1.636,0,0,0-1.632,1.632,4.252,4.252,0,0,1-4.242,4.242,1.632,1.632,0,1,0,0,3.263,7.512,7.512,0,0,0,7.506-7.506A1.636,1.636,0,0,0,111.494,97.527Zm10.2,5.854a4.252,4.252,0,0,1-4.242-4.242,1.632,1.632,0,0,0-3.263,0,7.512,7.512,0,0,0,7.506,7.506,1.632,1.632,0,0,0,0-3.263Zm0,4.344a7.512,7.512,0,0,0-7.506,7.506,1.632,1.632,0,0,0,3.263,0,4.252,4.252,0,0,1,4.242-4.242,1.632,1.632,0,0,0,0-3.263Zm-16.051,0a1.632,1.632,0,1,0,0,3.263,4.252,4.252,0,0,1,4.242,4.242,1.632,1.632,0,1,0,3.263,0A7.538,7.538,0,0,0,105.64,107.724ZM52,24.8a2.672,2.672,0,1,0,2.672,2.672A2.681,2.681,0,0,0,52,24.8Zm30.206,92.454a1.836,1.836,0,1,1-1.836-1.836A1.841,1.841,0,0,1,82.206,117.249Zm6.119,0a1.836,1.836,0,1,1-1.836-1.836A1.841,1.841,0,0,1,88.324,117.249Zm6.119,0a1.836,1.836,0,1,1-1.836-1.836A1.841,1.841,0,0,1,94.443,117.249ZM45.269,55.328a5.384,5.384,0,1,1-5.384-5.384A5.379,5.379,0,0,1,45.269,55.328Zm-3.263,0a2.121,2.121,0,1,0-2.121,2.1A2.133,2.133,0,0,0,42.006,55.328Zm68.2-1.244h.8v.8a1.632,1.632,0,0,0,3.263,0v-.8h.8a1.632,1.632,0,0,0,0-3.263h-.8v-.8a1.632,1.632,0,0,0-3.263,0v.8h-.8a1.632,1.632,0,1,0,0,3.263Z" transform="translate(-17.195 0)"/>
  </g>
</svg>
