<svg xmlns="http://www.w3.org/2000/svg" width="88.182" height="86.299" viewBox="0 0 88.182 86.299">
  <g id="price_tag" transform="translate(-30.2 -32.6)">
    <path id="Path_7500" data-name="Path 7500" d="M122.679,166.8a.926.926,0,0,1,.131,1.286L91.078,199.838,65.5,174.26l1.827-1.827c2.778-2.778,7.793-2.256,11.223,1.156a10.282,10.282,0,0,0,7.1,3.151,6.679,6.679,0,0,0,4.847-1.9l1.547-1.547c3.281,2.8,2.2,5.779,2.927,5.779a24.131,24.131,0,0,0,3.971-1.212l6.618,6.339,3.263-3.263-5.425-5.593s2.722-1.4,1.044-6.059c-1.137-3.169-3.188-3.878-4.381-3.99l2.908-2.908c1.23-1.23,2.983-3.076,5-4.959A5.145,5.145,0,0,0,116,151.4c2.666-1.305,5.2-1.585,7.028.242Z" transform="translate(-28.719 -95.798)" fill="#4890de"/>
    <g id="Group_2481" data-name="Group 2481" transform="translate(30.2 34.278)">
      <path id="Path_7501" data-name="Path 7501" d="M30.2,449.474V442.8h6.674v6.674Z" transform="translate(-30.2 -368.004)" fill="#4890de"/>
      <path id="Path_7502" data-name="Path 7502" d="M44.31,123.406v-7.345h6.954v7.327H44.31ZM49.94,41.6H32.9V60.728Z" transform="translate(-32.397 -41.6)" fill="#4890de"/>
    </g>
    <path id="Path_7503" data-name="Path 7503" d="M328.518,93.563a1.5,1.5,0,0,1,1.491,1.491,3.887,3.887,0,0,0,3.878,3.878,1.491,1.491,0,0,1,0,2.983,6.866,6.866,0,0,1-6.861-6.861A1.5,1.5,0,0,1,328.518,93.563ZM319.2,101.9a6.866,6.866,0,0,0,6.861-6.861,1.491,1.491,0,0,0-2.983,0,3.887,3.887,0,0,1-3.878,3.878,1.491,1.491,0,0,0,0,2.983Zm0,3.971a3.887,3.887,0,0,1,3.878,3.878,1.491,1.491,0,1,0,2.983,0,6.866,6.866,0,0,0-6.861-6.861,1.491,1.491,0,0,0,0,2.983Zm14.691-2.983a6.866,6.866,0,0,0-6.861,6.861,1.491,1.491,0,1,0,2.983,0,3.887,3.887,0,0,1,3.878-3.878,1.491,1.491,0,0,0,0-2.983Zm-2.778-68.607a1.678,1.678,0,1,1,1.678,1.678A1.683,1.683,0,0,1,331.109,34.278Zm-5.593,0a1.678,1.678,0,1,1,1.678,1.678A1.683,1.683,0,0,1,325.516,34.278Zm-5.593,0a1.678,1.678,0,1,1,1.678,1.678A1.683,1.683,0,0,1,319.923,34.278Zm7.289,7.2a1.743,1.743,0,0,1-1.193-.485,1.687,1.687,0,1,1,2.386,0h0A1.743,1.743,0,0,1,327.213,41.474Zm6.973-3.076a1.7,1.7,0,0,1,0,2.386h0a1.662,1.662,0,0,1-1.193.485,1.743,1.743,0,0,1-1.193-.485,1.687,1.687,0,1,1,2.386-2.386Zm3.468,2.573a1.687,1.687,0,1,1,2.386,0h0a1.662,1.662,0,0,1-1.193.485A1.536,1.536,0,0,1,337.653,40.971Zm2.312,74.945H309.091a1.491,1.491,0,0,0,0,2.983h30.873a1.491,1.491,0,0,0,0-2.983Zm-.82-64.6a1.491,1.491,0,1,0,0,2.983,1.939,1.939,0,0,1,0,3.878,1.491,1.491,0,1,0,0,2.983,4.922,4.922,0,0,0,0-9.844Z" transform="translate(-225.684)"/>
    <path id="Path_7504" data-name="Path 7504" d="M130.544,98.787a1.515,1.515,0,0,1-.783.224,1.459,1.459,0,0,1-1.268-.708,18.887,18.887,0,0,0-12.659-8.352v8.93a1.51,1.51,0,0,1-.429,1.063L82.78,132.569a1.463,1.463,0,0,1-1.063.429,1.543,1.543,0,0,1-1.063-.429l-20.88-20.9a1.49,1.49,0,0,1,2.107-2.107L81.717,129.4l31.134-31.134V85.141a10.526,10.526,0,0,0-10.515-10.515H89.212l-1.585,1.585A1.49,1.49,0,0,1,85.52,74.1l2.032-2.032a1.478,1.478,0,0,1,1.063-.429h13.74a13.518,13.518,0,0,1,13.5,13.5v1.771a21.713,21.713,0,0,1,15.194,9.806A1.545,1.545,0,0,1,130.544,98.787Zm-46.869,9.079a1.473,1.473,0,0,1,.168-.708,6.139,6.139,0,0,1-7.01-1.38c-2.107-2.107-2.349-5.108-.746-8.017l-3.635-3.635a1.49,1.49,0,0,1,2.107-2.107l4.474,4.474a1.475,1.475,0,0,1,.149,1.92c-.69.969-2.107,3.412-.261,5.257a3.165,3.165,0,0,0,3.785.727,8.3,8.3,0,0,0,2.573-1.92l.019-.019a8.422,8.422,0,0,1,2.461-1.846,2.739,2.739,0,0,1,3.3.634,2.585,2.585,0,0,1,.764,1.939c-.019,1.808-1.734,3.561-1.976,3.8h0a7.788,7.788,0,0,1-3.207,2.144v.466a6.7,6.7,0,0,0,2.368-1.268,1.505,1.505,0,0,1,1.976.112l4.456,4.456a1.5,1.5,0,0,1,0,2.107,1.463,1.463,0,0,1-1.063.429,1.577,1.577,0,0,1-1.063-.429l-3.561-3.561a8.736,8.736,0,0,1-4.586,1.342h0a1.466,1.466,0,0,1-1.044-.429,1.485,1.485,0,0,1-.447-1.044Zm1.641-1.491c.634-.037,1.305-.354,2.442-1.491h0a5.576,5.576,0,0,0,1.025-1.436,6.923,6.923,0,0,0-1.324,1.119A14.165,14.165,0,0,1,85.315,106.375Zm9.023-8.967a7.775,7.775,0,0,0-6.469-1.864l-1.025-3.71a1.488,1.488,0,1,0-2.871.783l1.044,3.766a9.694,9.694,0,0,0-2.852,1.958,1.5,1.5,0,0,0,0,2.107,1.463,1.463,0,0,0,1.063.429,1.577,1.577,0,0,0,1.063-.429,7.148,7.148,0,0,1,2.274-1.473c.056-.019.131-.037.186-.056l.112-.056c.019,0,.019,0,.037-.019,1.38-.541,3.859-.783,5.407.708,1.92,1.846,2.2,3.9.839,6.283a1.5,1.5,0,0,0,.559,2.032,1.536,1.536,0,0,0,2.051-.559C97.75,103.728,97.266,100.2,94.339,97.408ZM83.749,80.088,57.034,106.823a1.463,1.463,0,0,1-1.063.429,1.543,1.543,0,0,1-1.063-.429,1.5,1.5,0,0,1,0-2.107l26.25-26.25a27.5,27.5,0,0,1-8.986-9.955,1.5,1.5,0,1,1,2.666-1.361c3.878,7.625,12.043,11.764,18.214,13.908a59.764,59.764,0,0,0,12.7,2.852,3.652,3.652,0,0,0-2.647-2.33,3.692,3.692,0,0,0-2.107.168,1.494,1.494,0,1,1-1.1-2.778,6.523,6.523,0,0,1,3.822-.3A6.629,6.629,0,0,1,102.3,91.778a7.471,7.471,0,0,1-1.417-.149,6.654,6.654,0,0,1-5.22-6.656c-1.137-.317-2.33-.671-3.542-1.1A46.641,46.641,0,0,1,83.749,80.088Zm21.794,6.786a55.575,55.575,0,0,1-6.823-1.137,3.66,3.66,0,0,0,6.823,1.137Z" transform="translate(-19.749 -27.447)"/>
  </g>
</svg>
