<svg xmlns="http://www.w3.org/2000/svg" width="96.409" height="98.116" viewBox="0 0 96.409 98.116">
  <g id="hand_shake" transform="translate(-13.8 -25.7)">
    <path id="Path_10495" data-name="Path 10495" d="M246.388,151.665v23.7H242.13l-5.615,3.517s3.25,3.538.6,6.294c0,0-2.263,3.908-6.294.6,0,0-.165,3.908-1.419,4.813s-3.353,1.522-7.076-.514c0,0,1.707,4.2-.905,5.821-2.592,1.625-6.15-.987-6.15-.987s1.913,2.695.123,4.71c-1.769,2.016-7.323-.967-9.359-3.723-2.016-2.777-3.394-1.728-3.394-1.728s-6.15,3.99-7.672.72-.823.761,4.381-3.332,16.332-12.856,16.332-12.856c4.443-4.217,3.929-10.552.638-15.736-3.188-5-8.022-8.372-4.669-11.251.144-.123.309-.267.473-.391.144.123.288.226.432.35,9.359,7.3,12.732,5.04,12.547,1.543-.1-1.831-3.106-4.464-4.484-6.747,1.028-.473,1.707-.761,1.707-.761l10.532,5.945h13.535Z" transform="translate(-143.337 -95.317)" fill="#4890de"/>
    <path id="Path_10496" data-name="Path 10496" d="M156.428,125.952h-13.1l-10.161-5.739a1.662,1.662,0,0,0-1.666.021l-.206-.247-.021-.021c-.432-.535-.905-1.131-1.378-1.748l-.432-.576c-.041-.041-.082-.1-.123-.144l-.062-.062h0c-.021-.021-.041-.062-.062-.082-1.419-1.81-4.608-1.954-9.668-1.954h-7.9c-5.1,0-14.913,9.524-15.962,10.532H82.646A1.65,1.65,0,0,0,81,127.577v23.7a1.65,1.65,0,0,0,1.646,1.646h2.263a1.646,1.646,0,1,0,0-3.291h-.617v-20.4H96.386a1.634,1.634,0,0,0,1.193-.514l.35-.37c4.566-4.566,11.313-9.647,13.7-9.647h7.9c1.913,0,6.4,0,7.076.679.041.041.062.082.1.123l.021.021a2.186,2.186,0,0,0,.185.226l.391.494q.741.956,1.419,1.79l1.44,1.851c2.057,2.571,3.312,4.258,3.682,5.307.165.473.267.72-.555,1.563a2.771,2.771,0,0,1-.926.144c-2.365-.062-6.027-1.892-8.022-4.011l-.823-.864a1.623,1.623,0,0,0-2.2-.165L88.631,151.273a8.189,8.189,0,0,0-.8.7,1.566,1.566,0,0,0-.473,1.172,1.236,1.236,0,0,0-.144.555c0,.062-.021.123-.021.185-.123,1.09-.494,3.99,2.818,6.85a4.75,4.75,0,0,0,3.168,1.131,1.77,1.77,0,0,0,.329-.021c.35,1.975,1.275,4.71,3.6,5.759a7.115,7.115,0,0,0,2.941.617,8.881,8.881,0,0,0,1.275-.1,4.935,4.935,0,0,0,.555-.1c.391,1.913,1.419,4.3,3.661,5.04a9.078,9.078,0,0,0,2.818.432,8.294,8.294,0,0,0,1.234-.082,5.526,5.526,0,0,0,2.222-.638h0c.679-.473,1.5-1.09,2.448-1.79a4.856,4.856,0,0,0,1.46,2.551l.041.041,3.805,3.291a5.086,5.086,0,0,0,3.5,1.4h.123a4.869,4.869,0,0,0,3.456-1.584A4.986,4.986,0,0,0,128,173.653a4.8,4.8,0,0,0,1.81.329h.267a4.821,4.821,0,0,0,4.5-5.04v-.062a1.2,1.2,0,0,0-.041-.267,4.727,4.727,0,0,0,2.448.679,3.641,3.641,0,0,0,.473-.021,4.8,4.8,0,0,0,3.271-1.707,4.937,4.937,0,0,0,1.111-3.5,6.215,6.215,0,0,0,2.448.288,6.223,6.223,0,0,0,4.134-2.18h0a6,6,0,0,0,1.4-4.443,6.227,6.227,0,0,0-.864-2.633l3.661-2.139h3.826a1.65,1.65,0,0,0,1.646-1.646V127.6A1.682,1.682,0,0,0,156.428,125.952Zm-32.191,48.462-.021.021a1.61,1.61,0,0,1-1.09.514,1.715,1.715,0,0,1-1.255-.473l-.082-.082-3.826-3.291a1.669,1.669,0,0,1-.514-1.172,1.534,1.534,0,0,1,.453-1.172l.021-.021a1.6,1.6,0,0,1,1.214-.514,1.635,1.635,0,0,1,1.152.432c.021.021.041.041.062.041l3.867,3.353a1.752,1.752,0,0,1,.514,1.152A1.885,1.885,0,0,1,124.237,174.414Zm6.623-4.237h0a1.491,1.491,0,0,1-2.139.123l-.021-.021-5.924-5.2a1.5,1.5,0,0,1-.123-2.139,1.477,1.477,0,0,1,1.111-.494,1.507,1.507,0,0,1,1.008.391l5.945,5.184a1.64,1.64,0,0,1,.514,1.049A1.457,1.457,0,0,1,130.86,170.176Zm7.3-4.71h0a1.338,1.338,0,0,1-.967.514h-.062a1.562,1.562,0,0,1-1.111-.309l-6.808-5.9-.041-.041a1.338,1.338,0,0,1-.514-.967v-.041a1.5,1.5,0,0,1,.329-1.09,1.548,1.548,0,0,1,1.028-.555c.082,0,.165-.021.226-.021a1.231,1.231,0,0,1,.7.226c.247.267.514.494.761.72l.041.021.041.041,6.171,5.225.021.021a1.443,1.443,0,0,1,.535,1.008A1.521,1.521,0,0,1,138.162,165.466Zm7.734-5.43a2.869,2.869,0,0,1-1.954,1.028,2.672,2.672,0,0,1-2.036-.638l-4.011-3.291-3.312-2.859c-.041-.041-.082-.1-.123-.144a2.845,2.845,0,0,1,.185-3.373,2.819,2.819,0,0,1,3.97-.37l6.891,5.7a2.763,2.763,0,0,1,1.008,1.934A2.641,2.641,0,0,1,145.9,160.036Zm8.886-10.388H152.17a1.649,1.649,0,0,0-.823.226l-4.772,2.8-5.842-4.813a5.971,5.971,0,0,0-4.464-1.378,6.1,6.1,0,0,0-5.41,7.323c-.206-.021-.432-.041-.638-.041a1.736,1.736,0,0,0-.391.041h-.062a4.9,4.9,0,0,0-3.271,1.728,4.78,4.78,0,0,0-1.07,3.5,3.123,3.123,0,0,0,.062.432,4.684,4.684,0,0,0-1.666-.309,4.786,4.786,0,0,0-4.71,5.759,4.88,4.88,0,0,0-3.559,1.522,1.665,1.665,0,0,0-1.214.329c-1.728,1.337-3.147,2.386-4.217,3.168a6.143,6.143,0,0,1-3.517-.041c-1.07-.35-1.563-2.695-1.584-3.579,4.752-3.5,12.054-9.441,12.218-9.606a1.646,1.646,0,0,0-2.221-2.427c-.514.432-8.927,7.261-13.226,10.305a4.509,4.509,0,0,1-3.291,0c-1.028-.473-1.625-2.489-1.81-3.744.062-.041.123-.062.185-.1,4.237-3,13.391-10.388,13.7-10.7a1.651,1.651,0,0,0,0-2.324,1.629,1.629,0,0,0-2.242-.062c-.473.391-8.948,7.261-13.267,10.346-.494.267-2,.967-2.88.206-1.975-1.707-1.81-3.106-1.707-3.949a1.265,1.265,0,0,0,.021-.267h0l.041-.041c.021-.021.062-.041.082-.062l31.512-24.519c2.653,2.674,7.076,4.772,10.2,4.834h.1a4.492,4.492,0,0,0,3.147-1.09c2.53-2.571,1.872-4.854-.247-7.858l6.726,3.785a1.608,1.608,0,0,0,.8.206h11.889v20.4Z" transform="translate(-53.377 -71.249)"/>
    <path id="Path_10497" data-name="Path 10497" d="M122.362,37.63a1.65,1.65,0,0,1-1.646,1.646,4.288,4.288,0,0,0-4.278,4.278,1.646,1.646,0,1,1-3.291,0,7.576,7.576,0,0,1,7.57-7.57A1.65,1.65,0,0,1,122.362,37.63Zm-17.854,1.646a4.288,4.288,0,0,1,4.278,4.278,1.646,1.646,0,1,0,3.291,0,7.576,7.576,0,0,0-7.57-7.57,1.646,1.646,0,0,0,0,3.291Zm0-4.361a7.576,7.576,0,0,0,7.57-7.57,1.646,1.646,0,1,0-3.291,0,4.288,4.288,0,0,1-4.278,4.278,1.646,1.646,0,0,0,0,3.291Zm16.209,0a1.646,1.646,0,0,0,0-3.291,4.288,4.288,0,0,1-4.278-4.278,1.646,1.646,0,1,0-3.291,0A7.576,7.576,0,0,0,120.716,34.915ZM53.968,40.448h-.8v-.8a1.646,1.646,0,0,0-3.291,0v.8h-.8a1.646,1.646,0,1,0,0,3.291h.8v.8a1.646,1.646,0,0,0,3.291,0v-.8h.8a1.646,1.646,0,1,0,0-3.291ZM115.2,98.865a1.65,1.65,0,0,0-1.646,1.646v.8h-.8a1.646,1.646,0,0,0,0,3.291h.8v.8a1.646,1.646,0,0,0,3.291,0v-.8h.8a1.646,1.646,0,0,0,0-3.291h-.8v-.8A1.65,1.65,0,0,0,115.2,98.865ZM56.56,27.963H30.746a1.646,1.646,0,1,0,0,3.291H56.56a1.646,1.646,0,1,0,0-3.291Zm63.374,90.012H94.12a1.646,1.646,0,1,0,0,3.291h25.815a1.646,1.646,0,0,0,0-3.291ZM87.5,114.868H75.32a1.646,1.646,0,0,0,0,3.291H87.5a1.646,1.646,0,0,0,0-3.291ZM39.508,92.859A1.65,1.65,0,0,0,37.863,94.5a2.139,2.139,0,1,1-4.278,0,1.646,1.646,0,1,0-3.291,0,5.43,5.43,0,0,0,10.861,0A1.65,1.65,0,0,0,39.508,92.859Z" transform="translate(-12.153 0)"/>
    <path id="Path_10498" data-name="Path 10498" d="M34.9,430.1H13.8V411.3Z" transform="translate(0 -306.284)" fill="#4890de"/>
  </g>
</svg>
