<svg xmlns="http://www.w3.org/2000/svg" width="105.459" height="98.558" viewBox="0 0 105.459 98.558">
  <g id="web_design" transform="translate(-1.8 -16.2)">
    <path id="Path_10505" data-name="Path 10505" d="M132.722,149v45.694H41.852a4.351,4.351,0,0,1-4.352-4.352V153.435A4.44,4.44,0,0,1,41.935,149h71.681l-3.171,3.171-7.4,7.4-24.1,24.1c-2.238,2.238-3.316,4.953-3.834,8.6a15.132,15.132,0,0,0,8.828-4.062L123.148,149Z" transform="translate(-28.302 -105.28)" fill="#4890de"/>
    <path id="Path_10506" data-name="Path 10506" d="M134.714,23.121a1.663,1.663,0,0,1-1.658,1.658h-.787v.808a1.658,1.658,0,1,1-3.316,0v-.808h-.808a1.658,1.658,0,0,1,0-3.316h.808v-.808a1.658,1.658,0,1,1,3.316,0v.808h.808A1.645,1.645,0,0,1,134.714,23.121ZM53.19,21.464h-.808v-.808a1.658,1.658,0,0,0-3.316,0v.808h-.808a1.658,1.658,0,0,0,0,3.316h.808v.808a1.658,1.658,0,0,0,3.316,0v-.808h.808a1.658,1.658,0,1,0,0-3.316ZM69.354,16.2a2.238,2.238,0,1,0,2.238,2.238A2.242,2.242,0,0,0,69.354,16.2Zm45.694,6.072H94.905a1.658,1.658,0,0,0,0,3.316h20.143a1.658,1.658,0,0,0,0-3.316Z" transform="translate(-35.516)"/>
    <path id="Path_10507" data-name="Path 10507" d="M100.109,123.988a1.663,1.663,0,0,1-1.658,1.658H85.21a1.658,1.658,0,1,1,0-3.316H98.452A1.649,1.649,0,0,1,100.109,123.988ZM105.6,95.1a1.663,1.663,0,0,0-1.658,1.658v53.527H81.438a1.658,1.658,0,0,0,0,3.316h22.505v10.071H54.913a1.663,1.663,0,0,0-1.658,1.658c0,.1.021.207.021.311a1.568,1.568,0,0,0-.021.311v8.04H15.519a1.658,1.658,0,0,0,0,3.316H93.54a1.658,1.658,0,0,0,0-3.316H56.571v-7h47.373a3.325,3.325,0,0,0,3.316-3.316V96.758A1.663,1.663,0,0,0,105.6,95.1ZM11.457,156.461a1.865,1.865,0,1,1-1.865,1.865A1.871,1.871,0,0,1,11.457,156.461Zm6.217,0a1.865,1.865,0,1,1-1.865,1.865A1.871,1.871,0,0,1,17.674,156.461Zm6.217,0a1.865,1.865,0,1,1-1.865,1.865A1.871,1.871,0,0,1,23.891,156.461Zm25.676,8.869a1.663,1.663,0,0,0-1.658-1.658H5.116V98.416H99.343a1.658,1.658,0,0,0,0-3.316H5.116A3.325,3.325,0,0,0,1.8,98.416v65.256a3.325,3.325,0,0,0,3.316,3.316H47.908A1.663,1.663,0,0,0,49.566,165.33ZM98.452,133.4H85.21a1.658,1.658,0,1,0,0,3.316H98.452a1.658,1.658,0,1,0,0-3.316ZM15.1,122.33a1.658,1.658,0,1,0,0,3.316H27.911a1.663,1.663,0,0,0,1.658-1.658v-9.429H77.024l3.316-3.316H15.1a1.658,1.658,0,1,0,0,3.316H26.253v7.75H15.1Zm0,14.382H51.411a1.658,1.658,0,1,0,0-3.316H15.1a1.658,1.658,0,1,0,0,3.316Zm83.348-25.468H92.193l4.352-4.352c1.14-1.14,1.451-4.207-.663-6.4a5.515,5.515,0,0,0-3.813-1.534,3.811,3.811,0,0,0-2.839,1.078L81,108.259a1.656,1.656,0,0,0,2.342,2.342l8.227-8.227a.812.812,0,0,1,.477-.1,2.216,2.216,0,0,1,1.451.539,2.043,2.043,0,0,1,.58,1.844L54.457,144.3a12.221,12.221,0,0,1-5.554,3.129,11.026,11.026,0,0,1,2.9-5.305L75.926,118a1.656,1.656,0,1,0-2.342-2.342l-24.1,24.121a13.655,13.655,0,0,0-3.088,4.7H15.1a1.658,1.658,0,1,0,0,3.316H45.422c-.1.5-.187.995-.249,1.513a1.632,1.632,0,0,0,.477,1.409,1.678,1.678,0,0,0,1.181.477.85.85,0,0,0,.228-.021,16.688,16.688,0,0,0,9.76-4.538l32.058-32.079h9.574a1.658,1.658,0,0,0,0-3.316Z" transform="translate(0 -62.55)"/>
  </g>
</svg>
