<svg xmlns="http://www.w3.org/2000/svg" width="99.778" height="98.605" viewBox="0 0 99.778 98.605">
  <g id="clock" transform="translate(-16.2 -9.7)">
    <path id="Path_10499" data-name="Path 10499" d="M135.7,129.514a29.826,29.826,0,0,1-59.6,1.7c1.436-.485,3.538-.384,4.226,1.294,3.983,9.6,11.019,16.68,20.926,18.237,8.431,1.334,14.011-1.9,16.741-5.014,7.865-9.017,8.593-27.78-11.787-38.435-3.195-1.658-1.294-6.793,2.285-6.793h.121a33.656,33.656,0,0,1,6.429.627A29.833,29.833,0,0,1,135.7,129.514Z" transform="translate(-47.789 -72.442)" fill="#4890de"/>
    <path id="Path_10500" data-name="Path 10500" d="M63.579,51.892a1.559,1.559,0,0,1-.97.323,1.617,1.617,0,0,1-.97-2.911L79.855,35.636a1.635,1.635,0,0,1,2.264.323L84.849,39.6a1.617,1.617,0,0,1-2.588,1.941L80.5,39.194Zm40.376,51.921a27.81,27.81,0,0,1-10.129,1.9,25.154,25.154,0,0,1-13.85-3.66c-.02-.02-.04-.02-.061-.04a1.175,1.175,0,0,0-.505-.182h0a1.392,1.392,0,0,0-.708.04,1.552,1.552,0,0,0-.667.364,1.686,1.686,0,0,0-.324.425c-.02.02-.02.04-.04.061l-5.3,10.332-1.173-.607,3.4-6.793a1.592,1.592,0,0,0-.728-2.163,1.609,1.609,0,0,0-2.163.728l-4.125,8.249a1.613,1.613,0,0,0,.708,2.163l4.044,2.042a1.6,1.6,0,0,0,2.163-.687l5.277-10.271a28.327,28.327,0,0,0,14.032,3.275,30.764,30.764,0,0,0,11.322-2.123,1.619,1.619,0,0,0,.91-2.1A1.577,1.577,0,0,0,103.955,103.813ZM94.392,56.239a1.622,1.622,0,0,0-1.617,1.617V79.288a1.657,1.657,0,0,0,.485,1.152,1.59,1.59,0,0,0,1.132.465h.02l16.377-.243a1.636,1.636,0,0,0,1.6-1.638,1.618,1.618,0,0,0-1.617-1.6h-.02l-14.739.222V57.856A1.609,1.609,0,0,0,94.392,56.239ZM126.014,49.3,107.8,35.636a1.577,1.577,0,0,0-1.193-.3,1.637,1.637,0,0,0-1.072.627L102.8,39.6a1.617,1.617,0,0,0,2.588,1.941l1.759-2.345,16.923,12.7a1.559,1.559,0,0,0,.97.323,1.627,1.627,0,0,0,1.294-.647A1.6,1.6,0,0,0,126.014,49.3Zm-.97,28.427a31.217,31.217,0,1,0-51.7,23.555,1.628,1.628,0,0,0,2.285-.162,1.609,1.609,0,0,0-.162-2.285,27.976,27.976,0,1,1,32.37,3.114,1.6,1.6,0,0,0-.627,2.123l5.924,11.848a1.611,1.611,0,0,0,1.456.89,1.9,1.9,0,0,0,.728-.162,1.6,1.6,0,0,0,.728-2.163l-5.257-10.514A31.486,31.486,0,0,0,125.043,77.731Z" transform="translate(-35.733 -20.437)"/>
    <path id="Path_10501" data-name="Path 10501" d="M110.681,102.483a1.622,1.622,0,0,1-1.617,1.617H55.808a1.617,1.617,0,1,1,0-3.235h53.235A1.627,1.627,0,0,1,110.681,102.483Zm-83.239-2.224H24.247V97.064a1.617,1.617,0,0,0-3.235,0v3.195H17.817a1.617,1.617,0,1,0,0,3.235h3.195v3.195a1.617,1.617,0,0,0,3.235,0v-3.195h3.195a1.617,1.617,0,1,0,0-3.235Zm86.919-80.449a7.447,7.447,0,0,0-7.44,7.44,1.617,1.617,0,0,0,3.235,0,4.215,4.215,0,0,1,4.205-4.205,1.617,1.617,0,0,0,0-3.235ZM98.449,23.044a4.215,4.215,0,0,1,4.205,4.205,1.617,1.617,0,0,0,3.235,0,7.447,7.447,0,0,0-7.44-7.44,1.617,1.617,0,1,0,0,3.235Zm0-4.286a7.447,7.447,0,0,0,7.44-7.44,1.617,1.617,0,0,0-3.235,0,4.215,4.215,0,0,1-4.205,4.205,1.617,1.617,0,1,0,0,3.235Zm15.912,0a1.617,1.617,0,0,0,0-3.235,4.215,4.215,0,0,1-4.205-4.205,1.617,1.617,0,0,0-3.235,0A7.473,7.473,0,0,0,114.361,18.758Zm-35.524,77.6h25.374a1.617,1.617,0,1,0,0-3.235H78.837a1.617,1.617,0,0,0,0,3.235Z"/>
    <g id="Group_2842" data-name="Group 2842" transform="translate(16.463 11.884)">
      <path id="Path_10502" data-name="Path 10502" d="M29.833,20.5,17.5,32.813V20.5Z" transform="translate(-17.5 -20.5)" fill="#4890de"/>
      <path id="Path_10503" data-name="Path 10503" d="M464.6,142.9h4.408v28.872H464.6Z" transform="translate(-374.203 -118.153)" fill="#4890de"/>
      <path id="Path_10504" data-name="Path 10504" d="M428.7,142.9h4.408v28.872H428.7Z" transform="translate(-345.562 -118.153)" fill="#4890de"/>
    </g>
  </g>
</svg>
