<svg xmlns="http://www.w3.org/2000/svg" width="215" height="215" viewBox="0 0 215 215">
  <g id="Group_3058" data-name="Group 3058" transform="translate(-149.915 -634.915)">
    <circle id="Ellipse_92" data-name="Ellipse 92" cx="107.5" cy="107.5" r="107.5" transform="translate(149.915 634.915)" fill="#ebebeb"/>
    <circle id="Ellipse_58" data-name="Ellipse 58" cx="95.5" cy="95.5" r="95.5" transform="translate(161.915 646.915)" fill="#f2f2f2"/>
    <g id="undraw_web_search_eetr" transform="translate(149.915 677.88)">
      <rect id="Rectangle_1027" data-name="Rectangle 1027" width="172.827" height="110.686" transform="translate(0.074 0.098)" fill="#e6e6e6"/>
      <rect id="Rectangle_1028" data-name="Rectangle 1028" width="162.943" height="90.255" transform="translate(5.016 13.981)" fill="#fff"/>
      <path id="Path_10583" data-name="Path 10583" d="M0,0H172.827V7.342H0Z" fill="#426aa7"/>
      <circle id="Ellipse_54" data-name="Ellipse 54" cx="1.361" cy="1.361" r="1.361" transform="translate(4.095 2.393)" fill="#fff"/>
      <circle id="Ellipse_55" data-name="Ellipse 55" cx="1.361" cy="1.361" r="1.361" transform="translate(9.261 2.393)" fill="#fff"/>
      <circle id="Ellipse_56" data-name="Ellipse 56" cx="1.361" cy="1.361" r="1.361" transform="translate(14.426 2.393)" fill="#fff"/>
      <rect id="Rectangle_1030" data-name="Rectangle 1030" width="41.869" height="71.526" transform="translate(19.821 23.345)" fill="#e6e6e6"/>
      <rect id="Rectangle_1031" data-name="Rectangle 1031" width="34.891" height="19.688" transform="translate(68.918 23.345)" fill="#426aa7"/>
      <rect id="Rectangle_1032" data-name="Rectangle 1032" width="34.891" height="21.184" transform="translate(68.918 48.517)" fill="#e6e6e6"/>
      <rect id="Rectangle_1033" data-name="Rectangle 1033" width="34.891" height="19.688" transform="translate(68.918 75.183)" fill="#e6e6e6"/>
      <rect id="Rectangle_1034" data-name="Rectangle 1034" width="41.869" height="31.171" transform="translate(111.285 23.345)" fill="#e6e6e6"/>
      <rect id="Rectangle_1035" data-name="Rectangle 1035" width="41.869" height="31.171" transform="translate(111.285 63.701)" fill="#426aa7"/>
      <path id="Path_10568" data-name="Path 10568" d="M878.7,339.61c-2.762-4.707-8.226-4.926-8.226-4.926s-5.324-.687-8.74,6.482c-3.183,6.682-7.577,13.133-.707,14.7l1.241-3.9.769,4.186a26.636,26.636,0,0,0,2.939.051c7.357-.24,14.364.07,14.138-2.593C879.818,350.071,881.362,344.139,878.7,339.61Z" transform="translate(-680.973 -284.133)" fill="#2f2e41"/>
      <path id="Path_10569" data-name="Path 10569" d="M786.489,446.712l-2.416,6.174L771.994,464.16s-7.247,5.368-4.026,6.979,6.174-5.905,6.174-5.905l12.884-7.784,2.684-8.858Z" transform="translate(-614.949 -366.103)" fill="#ffb8b8"/>
      <path id="Path_10570" data-name="Path 10570" d="M654.068,552.38l2.416,6.174h3.49l-2.953-7.247Z" transform="translate(-478.501 -403.323)" fill="#ffb8b8"/>
      <path id="Path_10571" data-name="Path 10571" d="M693.068,562.38l2.416,6.174h3.49l-2.953-7.247Z" transform="translate(-507.033 -410.639)" fill="#ffb8b8"/>
      <path id="Path_10572" data-name="Path 10572" d="M838.784,546.026l4.563-1.074-5.905-23.89,1.961-18.382.052-.005s3.355-13.019.671-16.508-16.105-2.147-16.105-2.147-5.1,5.1-4.832,16.642,0,21.474,1.879,26.037,7.247,16.642,7.247,16.642l4.295-.537-4.563-19.863-.73-17.267c.581,6.919,1.749,20.04,2.34,21.025C830.463,528.042,838.784,546.026,838.784,546.026Z" transform="translate(-653.017 -393.211)" fill="#2f2e41"/>
      <path id="Path_10573" data-name="Path 10573" d="M930.049,467.712l1.879,6.711,8.321,15.032s7.247,6.442,4.295,7.247-7.516-5.905-7.516-5.905l-9.395-13.153-2.416-9.663Z" transform="translate(-730.592 -381.466)" fill="#ffb8b8"/>
      <circle id="Ellipse_57" data-name="Ellipse 57" cx="6.711" cy="6.711" r="6.711" transform="translate(183.083 53.767)" fill="#ffb8b8"/>
      <path id="Path_10574" data-name="Path 10574" d="M882.512,384.712l-1.61,5.1-2.684,5.905,9.932-4.026s-.537-4.295,0-5.368Z" transform="translate(-696.208 -320.745)" fill="#ffb8b8"/>
      <path id="Path_10575" data-name="Path 10575" d="M861.133,406.989l-6.174-5.1-6.979,2.953.273-4.355-7.446,2.378-1.148.367-1.61,8.321s-1.074.805-2.147,5.368a39.32,39.32,0,0,1-2.684,7.784s11.542-4.563,17.179,1.611a1.253,1.253,0,0,0,.537-1.342c-.268-.805,2.416-4.832,2.416-4.832s0,.805,1.074-.805,1.879-1.879,1.879-1.879Z" transform="translate(-663.287 -332.285)" fill="#426aa7"/>
      <path id="Path_10576" data-name="Path 10576" d="M842,410.987l-1.173-.945s-.975-.4-1.78.945-4.831,9.663-4.831,9.663l4.831,2.416Z" transform="translate(-664.019 -339.236)" fill="#426aa7"/>
      <path id="Path_10577" data-name="Path 10577" d="M918.1,423.712l3.758.268S924,425.054,924,426.665s.537,10.2.537,10.2l-5.905,1.879-2.416-7.516Z" transform="translate(-724.008 -349.277)" fill="#426aa7"/>
      <path id="Path_10578" data-name="Path 10578" d="M835.229,721.212l-4.563,1.879s-5.368.268-4.563,2.953,8.858.805,8.858.805,7.247.268,7.247-1.611-1.074-4.026-2.147-4.026Z" transform="translate(-658.022 -566.921)" fill="#2f2e41"/>
      <path id="Path_10579" data-name="Path 10579" d="M873.229,730.212l-4.563,1.879s-5.368.268-4.563,2.953,8.858.805,8.858.805,7.248.269,7.248-1.611-1.074-4.026-2.147-4.026Z" transform="translate(-685.822 -573.505)" fill="#2f2e41"/>
      <path id="Path_10580" data-name="Path 10580" d="M692.857,197.215l-5.4-2.852L680,195.53l-1.542,6.871,3.839-.149,1.073-2.525v2.483l1.772-.069,1.028-4.019.643,4.278,6.3-.13Z" transform="translate(-496.347 -142.192)" fill="#2f2e41"/>
      <path id="Path_10581" data-name="Path 10581" d="M635.248,206.666a36.242,36.242,0,1,0,2.055,53.524L681.759,297.7a3.34,3.34,0,1,0,4.307-5.1l-44.456-37.512A36.244,36.244,0,0,0,635.248,206.666Zm-2.866,44.807a27.153,27.153,0,1,1-3.242-38.263A27.153,27.153,0,0,1,632.383,251.474Z" transform="translate(-474.844 -184.241)" fill="#3f3d56"/>
      <path id="Path_10582" data-name="Path 10582" d="M610.4,309.471a27.155,27.155,0,0,1-4.608-36.5q-.779.784-1.506,1.643a27.153,27.153,0,1,0,41.5,35.022q.725-.86,1.366-1.761A27.155,27.155,0,0,1,610.4,309.471Z" transform="translate(-491.12 -238.996)" opacity="0.3"/>
    </g>
  </g>
</svg>
