<svg xmlns="http://www.w3.org/2000/svg" width="260.607" height="215" viewBox="0 0 260.607 215">
  <g id="Group_3063" data-name="Group 3063" transform="translate(-818.272 -1726)">
    <circle id="Ellipse_89" data-name="Ellipse 89" cx="107.5" cy="107.5" r="107.5" transform="translate(841 1726)" fill="#ebebeb"/>
    <circle id="Ellipse_88" data-name="Ellipse 88" cx="95.5" cy="95.5" r="95.5" transform="translate(853 1738)" fill="#f2f2f2"/>
    <g id="Group_3062" data-name="Group 3062" transform="translate(818.272 1754.657)">
      <path id="Path_10854" data-name="Path 10854" d="M128.619,196.713c0,16.22,10.176,29.345,22.751,29.345" transform="translate(-128.244 -188.14)" fill="#46455b"/>
      <path id="Path_10855" data-name="Path 10855" d="M211.318,225.189c0-16.4,11.355-29.675,25.389-29.675" transform="translate(-188.192 -187.271)" fill="#426aa7"/>
      <path id="Path_10856" data-name="Path 10856" d="M158.582,202.058c0,15.407,6.489,27.875,14.508,27.875" transform="translate(-149.964 -192.015)" fill="#426aa7"/>
      <path id="Path_10857" data-name="Path 10857" d="M211.318,203.469c0-20.959,13.125-37.918,29.345-37.918" transform="translate(-188.192 -165.551)" fill="#46455b"/>
      <rect id="Rectangle_1099" data-name="Rectangle 1099" width="198.074" height="112.242" rx="26.881" transform="translate(12.173 43.848)" fill="#f2f2f2"/>
      <rect id="Rectangle_1100" data-name="Rectangle 1100" width="198.074" height="15.681" transform="translate(8.184 59.666)" fill="#fff"/>
      <rect id="Rectangle_1101" data-name="Rectangle 1101" width="150.756" height="7.703" rx="3.851" transform="translate(35.695 127.067)" fill="#fff"/>
      <rect id="Rectangle_1102" data-name="Rectangle 1102" width="198.074" height="112.242" rx="26.881" transform="translate(16.575 37.796)" fill="none" stroke="#3f3d56" stroke-miterlimit="10" stroke-width="1"/>
      <rect id="Rectangle_1103" data-name="Rectangle 1103" width="198.074" height="15.681" transform="translate(16.437 54.715)" fill="none" stroke="#3f3d56" stroke-miterlimit="10" stroke-width="1"/>
      <rect id="Rectangle_1104" data-name="Rectangle 1104" width="25.309" height="20.908" rx="8.758" transform="translate(23.315 94.329)" fill="#426aa7"/>
      <rect id="Rectangle_1105" data-name="Rectangle 1105" width="25.309" height="20.908" rx="8.758" transform="translate(26.341 90.753)" fill="none" stroke="#3f3d56" stroke-miterlimit="10" stroke-width="1"/>
      <rect id="Rectangle_1106" data-name="Rectangle 1106" width="150.756" height="7.703" rx="3.851" transform="translate(40.096 123.215)" fill="none" stroke="#3f3d56" stroke-miterlimit="10" stroke-width="1"/>
      <line id="Line_75" data-name="Line 75" x2="235.692" transform="translate(0 156.09)" fill="none" stroke="#3f3d56" stroke-miterlimit="10" stroke-width="1"/>
      <path id="Path_10858" data-name="Path 10858" d="M1001.894,560.512l-6.644,6.357a1.26,1.26,0,0,1-1.656.079,91.632,91.632,0,0,1-16.944-17.71,1.26,1.26,0,0,1,.152-1.651l6.685-6.4a1.26,1.26,0,0,1,1.9.186,71.166,71.166,0,0,0,16.369,17.2,1.258,1.258,0,0,1,.135,1.932Z" transform="translate(-742.807 -437.598)" fill="#f2f2f2"/>
      <path id="Path_10859" data-name="Path 10859" d="M1004.184,552.782l-6.644,6.357a1.26,1.26,0,0,1-1.656.079,91.632,91.632,0,0,1-16.944-17.71,1.26,1.26,0,0,1,.152-1.651l6.685-6.4a1.26,1.26,0,0,1,1.9.186,71.164,71.164,0,0,0,16.369,17.2,1.259,1.259,0,0,1,.135,1.932Z" transform="translate(-744.467 -431.995)" fill="none" stroke="#3f3d56" stroke-miterlimit="10" stroke-width="1"/>
      <ellipse id="Ellipse_93" data-name="Ellipse 93" cx="2.201" cy="4.127" rx="2.201" ry="4.127" transform="matrix(0.723, -0.691, 0.691, 0.723, 242.846, 114.465)" fill="#6c63ff"/>
      <ellipse id="Ellipse_94" data-name="Ellipse 94" cx="2.201" cy="4.127" rx="2.201" ry="4.127" transform="matrix(0.723, -0.691, 0.691, 0.723, 242.681, 113.099)" fill="none" stroke="#3f3d56" stroke-miterlimit="10" stroke-width="1"/>
      <path id="Path_10860" data-name="Path 10860" d="M980.5,517.544l-1.4,9.088a1.26,1.26,0,0,1-1.265,1.071,91.629,91.629,0,0,1-24.225-3.729,1.26,1.26,0,0,1-.885-1.4l1.408-9.144a1.26,1.26,0,0,1,1.622-1.011,71.172,71.172,0,0,0,23.46,3.677,1.258,1.258,0,0,1,1.284,1.45Z" transform="translate(-725.623 -416.951)" fill="#f2f2f2"/>
      <path id="Path_10861" data-name="Path 10861" d="M977.607,510.017l-1.4,9.088a1.26,1.26,0,0,1-1.265,1.071,91.628,91.628,0,0,1-24.224-3.729,1.26,1.26,0,0,1-.885-1.4l1.408-9.144a1.26,1.26,0,0,1,1.622-1.011,71.169,71.169,0,0,0,23.46,3.677,1.259,1.259,0,0,1,1.283,1.45Z" transform="translate(-723.53 -411.495)" fill="none" stroke="#3f3d56" stroke-miterlimit="10" stroke-width="1"/>
      <ellipse id="Ellipse_95" data-name="Ellipse 95" cx="2.201" cy="4.127" rx="2.201" ry="4.127" transform="translate(236.845 103.779) rotate(-81.248)" fill="#6c63ff"/>
      <ellipse id="Ellipse_96" data-name="Ellipse 96" cx="2.201" cy="4.127" rx="2.201" ry="4.127" transform="translate(235.883 102.794) rotate(-81.248)" fill="none" stroke="#3f3d56" stroke-miterlimit="10" stroke-width="1"/>
      <g id="Group_3061" data-name="Group 3061" transform="translate(184.607 21.663)">
        <path id="Path_10606" data-name="Path 10606" d="M770.446,187s3.789-1.353,6.225,4.06a106.757,106.757,0,0,0,6.226,11.368l-2.166.541s-.541-3.789-1.895-4.331l.541,4.872s-16.241,5.684-23.549-.541l.271-1.895s-1.083.271-1.083,1.895l-.812-.812a14.546,14.546,0,0,1,3.248-3.789c1.6-1.421,2.148-4.125,2.337-5.816a7.038,7.038,0,0,1,1.62-3.833C763.03,186.841,765.979,184.847,770.446,187Z" transform="translate(-739.123 -186.066)" fill="#2f2e41"/>
        <path id="Path_10607" data-name="Path 10607" d="M885.019,336.566s-7.131,6.082-8.18,9.648,3.985,3.985,3.985,3.985l10.906,1.049s.21,5.034,2.1,5.663.383-8.324.383-8.324l-10.66-3,4.824-5.034Z" transform="translate(-876.695 -305.001)" fill="#fbbebe"/>
        <path id="Path_10608" data-name="Path 10608" d="M733,366.566l.839,11.116,4.614,18.876s4.195,8.6.629,8.809-3.356-8.18-3.356-8.18l-6.711-17.827-.629-12.165Z" transform="translate(-690.906 -328.709)" fill="#fbbebe"/>
        <path id="Path_10609" data-name="Path 10609" d="M550.182,680.472v8.18l-5.034-1.258,1.468-7.551Z" transform="translate(-510.608 -562.076)" fill="#fbbebe"/>
        <path id="Path_10610" data-name="Path 10610" d="M678.182,680.472v8.18l-5.034-1.258,1.468-7.551Z" transform="translate(-665.454 -562.076)" fill="#fbbebe"/>
        <ellipse id="Ellipse_66" data-name="Ellipse 66" cx="6.921" cy="6.921" rx="6.921" ry="6.921" transform="translate(23.005 4.509)" fill="#fbbebe"/>
        <path id="Path_10611" data-name="Path 10611" d="M807.246,256.566s-2.517,9.019,1.468,11.326-10.067,3.985-13.843-2.936c0,0,6.711-2.307,4.824-8.389Z" transform="translate(-774.174 -241.78)" fill="#fbbebe"/>
        <path id="Path_10612" data-name="Path 10612" d="M763.7,313.985l1.258-.419s2.517,1.049,2.517,2.936.42,9.438.42,9.438l-5.663.629Z" transform="translate(-725.384 -286.825)" fill="#575a89"/>
        <path id="Path_10613" data-name="Path 10613" d="M783.852,422.5s6.921,8.82,6.921,19.516-1.678,49.5-1.678,49.5-6.292,2.936-10.067-.629l-3.356-44.045-13.214,45.513s-6.292,1.258-9.228-.839l5.663-29.363s.21-34.816,6.5-37.333S783.852,422.5,783.852,422.5Z" transform="translate(-746.795 -372.909)" fill="#2f2e41"/>
        <path id="Path_10614" data-name="Path 10614" d="M780.019,773.639s5.453-2.936,5.873,1.049.629,6.5.629,6.5.629,4.824-5.243,3.775-3.775-3.985-3.775-3.985,2.1-3.356,2.1-4.195A29.153,29.153,0,0,1,780.019,773.639Z" transform="translate(-745.898 -649.581)" fill="#2f2e41"/>
        <path id="Path_10615" data-name="Path 10615" d="M907.621,771.1s-4.963-3.705-5.963.175-1.577,6.339-1.577,6.339-1.331,4.679,4.632,4.5,4.32-3.387,4.32-3.387-1.582-3.627-1.459-4.457A29.139,29.139,0,0,0,907.621,771.1Z" transform="translate(-894.356 -647.133)" fill="#2f2e41"/>
        <path id="Path_10616" data-name="Path 10616" d="M883.137,300.277s-2.727-1.468-5.453,1.678l-5.453,6.292,4.195,4.614,7.97-4.824Z" transform="translate(-865.376 -276.052)" fill="#575a89"/>
        <path id="Path_10617" data-name="Path 10617" d="M797.66,209.714a18.958,18.958,0,0,1-5.745-6.245s-4.5,5-7.244,5.246-.25-6-.25-6l5-1.249,4.746.5,3.747,2.5Z" transform="translate(-760.255 -198.239)" fill="#2f2e41"/>
        <path id="Path_10618" data-name="Path 10618" d="M783.362,294.566s2.935,4.641,11.745,2.425l5,1.377.664.183s-.629,12.584-2.307,14.891-1.258,3.565-.839,3.775,1.468-.21.839.839-1.468.419-.629,1.049,1.258,2.936,1.258,2.936l-19.715,2.517s.629-8.18-1.049-12.374a54.073,54.073,0,0,1-2.1-5.872l1.258-10.487Z" transform="translate(-761.616 -271.81)" fill="#575a89"/>
      </g>
    </g>
    <g id="Group_3064" data-name="Group 3064" transform="translate(818.272 1754.657)">
      <path id="Path_10854-2" data-name="Path 10854" d="M128.619,196.713c0,16.22,10.176,29.345,22.751,29.345" transform="translate(-128.244 -188.14)" fill="#46455b"/>
      <path id="Path_10855-2" data-name="Path 10855" d="M211.318,225.189c0-16.4,11.355-29.675,25.389-29.675" transform="translate(-188.192 -187.271)" fill="#426aa7"/>
      <path id="Path_10856-2" data-name="Path 10856" d="M158.582,202.058c0,15.407,6.489,27.875,14.508,27.875" transform="translate(-149.964 -192.015)" fill="#426aa7"/>
      <path id="Path_10857-2" data-name="Path 10857" d="M211.318,203.469c0-20.959,13.125-37.918,29.345-37.918" transform="translate(-188.192 -165.551)" fill="#46455b"/>
      <rect id="Rectangle_1099-2" data-name="Rectangle 1099" width="198.074" height="112.242" rx="26.881" transform="translate(12.173 43.848)" fill="#f2f2f2"/>
      <rect id="Rectangle_1100-2" data-name="Rectangle 1100" width="198.074" height="15.681" transform="translate(8.184 59.666)" fill="#fff"/>
      <rect id="Rectangle_1101-2" data-name="Rectangle 1101" width="150.756" height="7.703" rx="3.851" transform="translate(35.695 127.067)" fill="#fff"/>
      <rect id="Rectangle_1102-2" data-name="Rectangle 1102" width="198.074" height="112.242" rx="26.881" transform="translate(16.575 37.796)" fill="none" stroke="#3f3d56" stroke-miterlimit="10" stroke-width="1"/>
      <rect id="Rectangle_1103-2" data-name="Rectangle 1103" width="198.074" height="15.681" transform="translate(16.437 54.715)" fill="none" stroke="#3f3d56" stroke-miterlimit="10" stroke-width="1"/>
      <rect id="Rectangle_1104-2" data-name="Rectangle 1104" width="25.309" height="20.908" rx="8.758" transform="translate(23.315 94.329)" fill="#426aa7"/>
      <rect id="Rectangle_1105-2" data-name="Rectangle 1105" width="25.309" height="20.908" rx="8.758" transform="translate(26.341 90.753)" fill="none" stroke="#3f3d56" stroke-miterlimit="10" stroke-width="1"/>
      <rect id="Rectangle_1106-2" data-name="Rectangle 1106" width="150.756" height="7.703" rx="3.851" transform="translate(40.096 123.215)" fill="none" stroke="#3f3d56" stroke-miterlimit="10" stroke-width="1"/>
      <line id="Line_75-2" data-name="Line 75" x2="235.692" transform="translate(0 156.09)" fill="none" stroke="#3f3d56" stroke-miterlimit="10" stroke-width="1"/>
      <path id="Path_10858-2" data-name="Path 10858" d="M1001.894,560.512l-6.644,6.357a1.26,1.26,0,0,1-1.656.079,91.632,91.632,0,0,1-16.944-17.71,1.26,1.26,0,0,1,.152-1.651l6.685-6.4a1.26,1.26,0,0,1,1.9.186,71.166,71.166,0,0,0,16.369,17.2,1.258,1.258,0,0,1,.135,1.932Z" transform="translate(-742.807 -437.598)" fill="#f2f2f2"/>
      <path id="Path_10859-2" data-name="Path 10859" d="M1004.184,552.782l-6.644,6.357a1.26,1.26,0,0,1-1.656.079,91.632,91.632,0,0,1-16.944-17.71,1.26,1.26,0,0,1,.152-1.651l6.685-6.4a1.26,1.26,0,0,1,1.9.186,71.164,71.164,0,0,0,16.369,17.2,1.259,1.259,0,0,1,.135,1.932Z" transform="translate(-744.467 -431.995)" fill="none" stroke="#3f3d56" stroke-miterlimit="10" stroke-width="1"/>
      <ellipse id="Ellipse_93-2" data-name="Ellipse 93" cx="2.201" cy="4.127" rx="2.201" ry="4.127" transform="matrix(0.723, -0.691, 0.691, 0.723, 242.846, 114.465)" fill="#6c63ff"/>
      <ellipse id="Ellipse_94-2" data-name="Ellipse 94" cx="2.201" cy="4.127" rx="2.201" ry="4.127" transform="matrix(0.723, -0.691, 0.691, 0.723, 242.681, 113.099)" fill="none" stroke="#3f3d56" stroke-miterlimit="10" stroke-width="1"/>
      <path id="Path_10860-2" data-name="Path 10860" d="M980.5,517.544l-1.4,9.088a1.26,1.26,0,0,1-1.265,1.071,91.629,91.629,0,0,1-24.225-3.729,1.26,1.26,0,0,1-.885-1.4l1.408-9.144a1.26,1.26,0,0,1,1.622-1.011,71.172,71.172,0,0,0,23.46,3.677,1.258,1.258,0,0,1,1.284,1.45Z" transform="translate(-725.623 -416.951)" fill="#f2f2f2"/>
      <path id="Path_10861-2" data-name="Path 10861" d="M977.607,510.017l-1.4,9.088a1.26,1.26,0,0,1-1.265,1.071,91.628,91.628,0,0,1-24.224-3.729,1.26,1.26,0,0,1-.885-1.4l1.408-9.144a1.26,1.26,0,0,1,1.622-1.011,71.169,71.169,0,0,0,23.46,3.677,1.259,1.259,0,0,1,1.283,1.45Z" transform="translate(-723.53 -411.495)" fill="none" stroke="#3f3d56" stroke-miterlimit="10" stroke-width="1"/>
      <ellipse id="Ellipse_95-2" data-name="Ellipse 95" cx="2.201" cy="4.127" rx="2.201" ry="4.127" transform="translate(236.845 103.779) rotate(-81.248)" fill="#6c63ff"/>
      <ellipse id="Ellipse_96-2" data-name="Ellipse 96" cx="2.201" cy="4.127" rx="2.201" ry="4.127" transform="translate(235.883 102.794) rotate(-81.248)" fill="none" stroke="#3f3d56" stroke-miterlimit="10" stroke-width="1"/>
      <g id="Group_3061-2" data-name="Group 3061" transform="translate(184.607 21.663)">
        <path id="Path_10606-2" data-name="Path 10606" d="M770.446,187s3.789-1.353,6.225,4.06a106.757,106.757,0,0,0,6.226,11.368l-2.166.541s-.541-3.789-1.895-4.331l.541,4.872s-16.241,5.684-23.549-.541l.271-1.895s-1.083.271-1.083,1.895l-.812-.812a14.546,14.546,0,0,1,3.248-3.789c1.6-1.421,2.148-4.125,2.337-5.816a7.038,7.038,0,0,1,1.62-3.833C763.03,186.841,765.979,184.847,770.446,187Z" transform="translate(-739.123 -186.066)" fill="#2f2e41"/>
        <path id="Path_10607-2" data-name="Path 10607" d="M885.019,336.566s-7.131,6.082-8.18,9.648,3.985,3.985,3.985,3.985l10.906,1.049s.21,5.034,2.1,5.663.383-8.324.383-8.324l-10.66-3,4.824-5.034Z" transform="translate(-876.695 -305.001)" fill="#fbbebe"/>
        <path id="Path_10608-2" data-name="Path 10608" d="M733,366.566l.839,11.116,4.614,18.876s4.195,8.6.629,8.809-3.356-8.18-3.356-8.18l-6.711-17.827-.629-12.165Z" transform="translate(-690.906 -328.709)" fill="#fbbebe"/>
        <path id="Path_10609-2" data-name="Path 10609" d="M550.182,680.472v8.18l-5.034-1.258,1.468-7.551Z" transform="translate(-510.608 -562.076)" fill="#fbbebe"/>
        <path id="Path_10610-2" data-name="Path 10610" d="M678.182,680.472v8.18l-5.034-1.258,1.468-7.551Z" transform="translate(-665.454 -562.076)" fill="#fbbebe"/>
        <ellipse id="Ellipse_66-2" data-name="Ellipse 66" cx="6.921" cy="6.921" rx="6.921" ry="6.921" transform="translate(23.005 4.509)" fill="#fbbebe"/>
        <path id="Path_10611-2" data-name="Path 10611" d="M807.246,256.566s-2.517,9.019,1.468,11.326-10.067,3.985-13.843-2.936c0,0,6.711-2.307,4.824-8.389Z" transform="translate(-774.174 -241.78)" fill="#fbbebe"/>
        <path id="Path_10612-2" data-name="Path 10612" d="M763.7,313.985l1.258-.419s2.517,1.049,2.517,2.936.42,9.438.42,9.438l-5.663.629Z" transform="translate(-725.384 -286.825)" fill="#575a89"/>
        <path id="Path_10613-2" data-name="Path 10613" d="M783.852,422.5s6.921,8.82,6.921,19.516-1.678,49.5-1.678,49.5-6.292,2.936-10.067-.629l-3.356-44.045-13.214,45.513s-6.292,1.258-9.228-.839l5.663-29.363s.21-34.816,6.5-37.333S783.852,422.5,783.852,422.5Z" transform="translate(-746.795 -372.909)" fill="#2f2e41"/>
        <path id="Path_10614-2" data-name="Path 10614" d="M780.019,773.639s5.453-2.936,5.873,1.049.629,6.5.629,6.5.629,4.824-5.243,3.775-3.775-3.985-3.775-3.985,2.1-3.356,2.1-4.195A29.153,29.153,0,0,1,780.019,773.639Z" transform="translate(-745.898 -649.581)" fill="#2f2e41"/>
        <path id="Path_10615-2" data-name="Path 10615" d="M907.621,771.1s-4.963-3.705-5.963.175-1.577,6.339-1.577,6.339-1.331,4.679,4.632,4.5,4.32-3.387,4.32-3.387-1.582-3.627-1.459-4.457A29.139,29.139,0,0,0,907.621,771.1Z" transform="translate(-894.356 -647.133)" fill="#2f2e41"/>
        <path id="Path_10616-2" data-name="Path 10616" d="M883.137,300.277s-2.727-1.468-5.453,1.678l-5.453,6.292,4.195,4.614,7.97-4.824Z" transform="translate(-865.376 -276.052)" fill="#575a89"/>
        <path id="Path_10617-2" data-name="Path 10617" d="M797.66,209.714a18.958,18.958,0,0,1-5.745-6.245s-4.5,5-7.244,5.246-.25-6-.25-6l5-1.249,4.746.5,3.747,2.5Z" transform="translate(-760.255 -198.239)" fill="#2f2e41"/>
        <path id="Path_10618-2" data-name="Path 10618" d="M783.362,294.566s2.935,4.641,11.745,2.425l5,1.377.664.183s-.629,12.584-2.307,14.891-1.258,3.565-.839,3.775,1.468-.21.839.839-1.468.419-.629,1.049,1.258,2.936,1.258,2.936l-19.715,2.517s.629-8.18-1.049-12.374a54.073,54.073,0,0,1-2.1-5.872l1.258-10.487Z" transform="translate(-761.616 -271.81)" fill="#575a89"/>
      </g>
    </g>
  </g>
</svg>
